G04 #@! TF.GenerationSoftware,KiCad,Pcbnew,(5.1.0)-1*
G04 #@! TF.CreationDate,2019-04-27T14:25:24+02:00*
G04 #@! TF.ProjectId,prkbd,70726b62-642e-46b6-9963-61645f706362,1*
G04 #@! TF.SameCoordinates,Original*
G04 #@! TF.FileFunction,Profile,NP*
%FSLAX46Y46*%
G04 Gerber Fmt 4.6, Leading zero omitted, Abs format (unit mm)*
G04 Created by KiCad (PCBNEW (5.1.0)-1) date 2019-04-27 14:25:24*
%MOMM*%
%LPD*%
G04 APERTURE LIST*
%ADD10C,0.150000*%
G04 APERTURE END LIST*
D10*
X42926000Y-140716000D02*
X64770000Y-140716000D01*
X42545000Y-65405000D02*
X42545000Y-140335000D01*
X64516000Y-65024000D02*
X42926000Y-65024000D01*
X42926000Y-140716000D02*
G75*
G02X42545000Y-140335000I0J381000D01*
G01*
X42545000Y-65405000D02*
G75*
G02X42926000Y-65024000I381000J0D01*
G01*
X82042000Y-140716000D02*
X64770000Y-140716000D01*
X93292395Y-121740395D02*
X83405107Y-139873554D01*
X95504000Y-121666000D02*
X93472000Y-121666000D01*
X93292395Y-121740395D02*
G75*
G02X93472000Y-121666000I179605J-179605D01*
G01*
X131064001Y-136800790D02*
X121919999Y-121771210D01*
X168402000Y-141732000D02*
X131318000Y-136906000D01*
X131318000Y-136906000D02*
G75*
G02X131064001Y-136800790I0J359209D01*
G01*
X119634000Y-121666000D02*
X95504000Y-121666000D01*
X121666000Y-121666000D02*
X119634000Y-121666000D01*
X121666000Y-121666000D02*
G75*
G02X121919999Y-121771210I0J-359209D01*
G01*
X183989683Y-150684455D02*
X168402000Y-141732000D01*
X198628000Y-126746000D02*
X184912000Y-150368000D01*
X184911999Y-150368000D02*
G75*
G02X183989683Y-150684455I-668317J445544D01*
G01*
X83405107Y-139873554D02*
G75*
G02X82042000Y-140716000I-1363107J681554D01*
G01*
X198628000Y-126746000D02*
X198628000Y-125984000D01*
X198628000Y-125984000D02*
X198628000Y-65532000D01*
X198374000Y-65278000D02*
G75*
G02X198628000Y-65532000I0J-254000D01*
G01*
X178308000Y-65278000D02*
X198374000Y-65278000D01*
X178054000Y-63500000D02*
X178054000Y-65024000D01*
X178308000Y-65278000D02*
G75*
G02X178054000Y-65024000I0J254000D01*
G01*
X177800000Y-63246000D02*
G75*
G02X178054000Y-63500000I0J-254000D01*
G01*
X159512000Y-63246000D02*
X177800000Y-63246000D01*
X159004000Y-62484000D02*
X159004000Y-62738000D01*
X159512000Y-63246000D02*
G75*
G02X159004000Y-62738000I0J508000D01*
G01*
X159004000Y-60960000D02*
X159004000Y-62484000D01*
X158750000Y-60706000D02*
G75*
G02X159004000Y-60960000I0J-254000D01*
G01*
X140208000Y-60706000D02*
X158750000Y-60706000D01*
X140208000Y-60706000D02*
G75*
G02X139954000Y-60452000I0J254000D01*
G01*
X139954000Y-58420000D02*
X139954000Y-60452000D01*
X121920000Y-58166000D02*
X139700000Y-58166000D01*
X139700000Y-58166000D02*
G75*
G02X139954000Y-58420000I0J-254000D01*
G01*
X121666000Y-58420000D02*
G75*
G02X121920000Y-58166000I254000J0D01*
G01*
X121666000Y-60452000D02*
X121666000Y-58420000D01*
X121158000Y-60706000D02*
X121412000Y-60706000D01*
X121666000Y-60452000D02*
G75*
G02X121412000Y-60706000I-254000J0D01*
G01*
X120650000Y-60706000D02*
X121158000Y-60706000D01*
X102870000Y-60706000D02*
X120650000Y-60706000D01*
X102616000Y-60960000D02*
G75*
G02X102870000Y-60706000I254000J0D01*
G01*
X102616000Y-64008000D02*
X102616000Y-60960000D01*
X102616000Y-64008000D02*
G75*
G02X101600000Y-65024000I-1016000J0D01*
G01*
X64516000Y-65024000D02*
X101600000Y-65024000D01*
M02*
