G04 #@! TF.GenerationSoftware,KiCad,Pcbnew,(5.1.0)-1*
G04 #@! TF.CreationDate,2019-06-07T23:15:03+02:00*
G04 #@! TF.ProjectId,prkbd,70726b62-642e-46b6-9963-61645f706362,1*
G04 #@! TF.SameCoordinates,Original*
G04 #@! TF.FileFunction,Legend,Bot*
G04 #@! TF.FilePolarity,Positive*
%FSLAX46Y46*%
G04 Gerber Fmt 4.6, Leading zero omitted, Abs format (unit mm)*
G04 Created by KiCad (PCBNEW (5.1.0)-1) date 2019-06-07 23:15:03*
%MOMM*%
%LPD*%
G04 APERTURE LIST*
%ADD10C,0.010000*%
%ADD11C,0.300000*%
%ADD12C,0.800000*%
%ADD13C,3.000000*%
%ADD14C,0.500000*%
%ADD15C,1.000000*%
%ADD16C,3.500000*%
%ADD17C,0.150000*%
%ADD18C,0.400000*%
%ADD19C,0.125000*%
G04 APERTURE END LIST*
D10*
G36*
X48916561Y-135204691D02*
G01*
X57763439Y-135204691D01*
X57763439Y-131560222D01*
X57707799Y-131560222D01*
X57707799Y-135149050D01*
X48972202Y-135149050D01*
X48972202Y-131560222D01*
X57707799Y-131560222D01*
X57763439Y-131560222D01*
X57763439Y-131504582D01*
X48916561Y-131504582D01*
X48916561Y-135204691D01*
X48916561Y-135204691D01*
G37*
X48916561Y-135204691D02*
X57763439Y-135204691D01*
X57763439Y-131560222D01*
X57707799Y-131560222D01*
X57707799Y-135149050D01*
X48972202Y-135149050D01*
X48972202Y-131560222D01*
X57707799Y-131560222D01*
X57763439Y-131560222D01*
X57763439Y-131504582D01*
X48916561Y-131504582D01*
X48916561Y-135204691D01*
G36*
X52169444Y-133222489D02*
G01*
X52168773Y-133335190D01*
X52168131Y-133430906D01*
X52167456Y-133511200D01*
X52166684Y-133577634D01*
X52165755Y-133631770D01*
X52164606Y-133675170D01*
X52163175Y-133709398D01*
X52161400Y-133736014D01*
X52159218Y-133756582D01*
X52156568Y-133772663D01*
X52153387Y-133785820D01*
X52149614Y-133797614D01*
X52146201Y-133806922D01*
X52111859Y-133878578D01*
X52067934Y-133935477D01*
X52013567Y-133978120D01*
X51947896Y-134007006D01*
X51870062Y-134022637D01*
X51779204Y-134025511D01*
X51770696Y-134025176D01*
X51696636Y-134017950D01*
X51635580Y-134002565D01*
X51583223Y-133977517D01*
X51538399Y-133944088D01*
X51508717Y-133910097D01*
X51480462Y-133863740D01*
X51456757Y-133811118D01*
X51440724Y-133758335D01*
X51438990Y-133749811D01*
X51436998Y-133729648D01*
X51435192Y-133692407D01*
X51433598Y-133639552D01*
X51432241Y-133572551D01*
X51431144Y-133492871D01*
X51430334Y-133401979D01*
X51429833Y-133301340D01*
X51429668Y-133195722D01*
X51429668Y-132691584D01*
X51233693Y-132691584D01*
X51237128Y-133217853D01*
X51237885Y-133330295D01*
X51238615Y-133425818D01*
X51239380Y-133506048D01*
X51240246Y-133572612D01*
X51241275Y-133627138D01*
X51242533Y-133671252D01*
X51244084Y-133706581D01*
X51245990Y-133734753D01*
X51248317Y-133757394D01*
X51251129Y-133776131D01*
X51254489Y-133792592D01*
X51258461Y-133808403D01*
X51260700Y-133816584D01*
X51294874Y-133911690D01*
X51340634Y-133992369D01*
X51398211Y-134058856D01*
X51467833Y-134111384D01*
X51549731Y-134150190D01*
X51602025Y-134166268D01*
X51664931Y-134178550D01*
X51737022Y-134186559D01*
X51810683Y-134189837D01*
X51878298Y-134187922D01*
X51908289Y-134184758D01*
X52006761Y-134164198D01*
X52091781Y-134131987D01*
X52164819Y-134087485D01*
X52200157Y-134057781D01*
X52253774Y-133998134D01*
X52295690Y-133929601D01*
X52326809Y-133850068D01*
X52348041Y-133757423D01*
X52356560Y-133693212D01*
X52358537Y-133664517D01*
X52360379Y-133619570D01*
X52362043Y-133560666D01*
X52363490Y-133490098D01*
X52364678Y-133410163D01*
X52365568Y-133323154D01*
X52366117Y-133231366D01*
X52366287Y-133145001D01*
X52366287Y-132691584D01*
X52172522Y-132691584D01*
X52169444Y-133222489D01*
X52169444Y-133222489D01*
G37*
X52169444Y-133222489D02*
X52168773Y-133335190D01*
X52168131Y-133430906D01*
X52167456Y-133511200D01*
X52166684Y-133577634D01*
X52165755Y-133631770D01*
X52164606Y-133675170D01*
X52163175Y-133709398D01*
X52161400Y-133736014D01*
X52159218Y-133756582D01*
X52156568Y-133772663D01*
X52153387Y-133785820D01*
X52149614Y-133797614D01*
X52146201Y-133806922D01*
X52111859Y-133878578D01*
X52067934Y-133935477D01*
X52013567Y-133978120D01*
X51947896Y-134007006D01*
X51870062Y-134022637D01*
X51779204Y-134025511D01*
X51770696Y-134025176D01*
X51696636Y-134017950D01*
X51635580Y-134002565D01*
X51583223Y-133977517D01*
X51538399Y-133944088D01*
X51508717Y-133910097D01*
X51480462Y-133863740D01*
X51456757Y-133811118D01*
X51440724Y-133758335D01*
X51438990Y-133749811D01*
X51436998Y-133729648D01*
X51435192Y-133692407D01*
X51433598Y-133639552D01*
X51432241Y-133572551D01*
X51431144Y-133492871D01*
X51430334Y-133401979D01*
X51429833Y-133301340D01*
X51429668Y-133195722D01*
X51429668Y-132691584D01*
X51233693Y-132691584D01*
X51237128Y-133217853D01*
X51237885Y-133330295D01*
X51238615Y-133425818D01*
X51239380Y-133506048D01*
X51240246Y-133572612D01*
X51241275Y-133627138D01*
X51242533Y-133671252D01*
X51244084Y-133706581D01*
X51245990Y-133734753D01*
X51248317Y-133757394D01*
X51251129Y-133776131D01*
X51254489Y-133792592D01*
X51258461Y-133808403D01*
X51260700Y-133816584D01*
X51294874Y-133911690D01*
X51340634Y-133992369D01*
X51398211Y-134058856D01*
X51467833Y-134111384D01*
X51549731Y-134150190D01*
X51602025Y-134166268D01*
X51664931Y-134178550D01*
X51737022Y-134186559D01*
X51810683Y-134189837D01*
X51878298Y-134187922D01*
X51908289Y-134184758D01*
X52006761Y-134164198D01*
X52091781Y-134131987D01*
X52164819Y-134087485D01*
X52200157Y-134057781D01*
X52253774Y-133998134D01*
X52295690Y-133929601D01*
X52326809Y-133850068D01*
X52348041Y-133757423D01*
X52356560Y-133693212D01*
X52358537Y-133664517D01*
X52360379Y-133619570D01*
X52362043Y-133560666D01*
X52363490Y-133490098D01*
X52364678Y-133410163D01*
X52365568Y-133323154D01*
X52366117Y-133231366D01*
X52366287Y-133145001D01*
X52366287Y-132691584D01*
X52172522Y-132691584D01*
X52169444Y-133222489D01*
G36*
X56947375Y-133266538D02*
G01*
X56205499Y-133266538D01*
X56205499Y-132691584D01*
X56010756Y-132691584D01*
X56010756Y-134166064D01*
X56205499Y-134166064D01*
X56205499Y-133442734D01*
X56947375Y-133442734D01*
X56947375Y-134166064D01*
X57132844Y-134166064D01*
X57132844Y-132691584D01*
X56947375Y-132691584D01*
X56947375Y-133266538D01*
X56947375Y-133266538D01*
G37*
X56947375Y-133266538D02*
X56205499Y-133266538D01*
X56205499Y-132691584D01*
X56010756Y-132691584D01*
X56010756Y-134166064D01*
X56205499Y-134166064D01*
X56205499Y-133442734D01*
X56947375Y-133442734D01*
X56947375Y-134166064D01*
X57132844Y-134166064D01*
X57132844Y-132691584D01*
X56947375Y-132691584D01*
X56947375Y-133266538D01*
G36*
X54638284Y-132867780D02*
G01*
X55417255Y-132867780D01*
X55417255Y-133266538D01*
X54638284Y-133266538D01*
X54638284Y-133442734D01*
X55417255Y-133442734D01*
X55417255Y-133989868D01*
X54638284Y-133989868D01*
X54638284Y-134166064D01*
X55602724Y-134166064D01*
X55602724Y-132691584D01*
X54638284Y-132691584D01*
X54638284Y-132867780D01*
X54638284Y-132867780D01*
G37*
X54638284Y-132867780D02*
X55417255Y-132867780D01*
X55417255Y-133266538D01*
X54638284Y-133266538D01*
X54638284Y-133442734D01*
X55417255Y-133442734D01*
X55417255Y-133989868D01*
X54638284Y-133989868D01*
X54638284Y-134166064D01*
X55602724Y-134166064D01*
X55602724Y-132691584D01*
X54638284Y-132691584D01*
X54638284Y-132867780D01*
G36*
X54137518Y-133989868D02*
G01*
X53395641Y-133989868D01*
X53395641Y-134166064D01*
X54322987Y-134166064D01*
X54322987Y-132691584D01*
X54137518Y-132691584D01*
X54137518Y-133989868D01*
X54137518Y-133989868D01*
G37*
X54137518Y-133989868D02*
X53395641Y-133989868D01*
X53395641Y-134166064D01*
X54322987Y-134166064D01*
X54322987Y-132691584D01*
X54137518Y-132691584D01*
X54137518Y-133989868D01*
G36*
X52681585Y-132839959D02*
G01*
X52876327Y-132839959D01*
X52876327Y-134017688D01*
X52681585Y-134017688D01*
X52681585Y-134166064D01*
X53256539Y-134166064D01*
X53256539Y-134017688D01*
X53061797Y-134017688D01*
X53061797Y-132839959D01*
X53256539Y-132839959D01*
X53256539Y-132691584D01*
X52681585Y-132691584D01*
X52681585Y-132839959D01*
X52681585Y-132839959D01*
G37*
X52681585Y-132839959D02*
X52876327Y-132839959D01*
X52876327Y-134017688D01*
X52681585Y-134017688D01*
X52681585Y-134166064D01*
X53256539Y-134166064D01*
X53256539Y-134017688D01*
X53061797Y-134017688D01*
X53061797Y-132839959D01*
X53256539Y-132839959D01*
X53256539Y-132691584D01*
X52681585Y-132691584D01*
X52681585Y-132839959D01*
G36*
X50723927Y-132693648D02*
G01*
X50593141Y-132696221D01*
X50397862Y-133102295D01*
X50358989Y-133182686D01*
X50322399Y-133257496D01*
X50288893Y-133325153D01*
X50259267Y-133384085D01*
X50234321Y-133432720D01*
X50214853Y-133469485D01*
X50201662Y-133492808D01*
X50195545Y-133501118D01*
X50195344Y-133501054D01*
X50190087Y-133491404D01*
X50177840Y-133466598D01*
X50159397Y-133428314D01*
X50135554Y-133378228D01*
X50107107Y-133318018D01*
X50074850Y-133249362D01*
X50039580Y-133173936D01*
X50002815Y-133094979D01*
X49817525Y-132696221D01*
X49682341Y-132693655D01*
X49547156Y-132691088D01*
X49547156Y-134166064D01*
X49741899Y-134166064D01*
X49742019Y-133528514D01*
X49742140Y-132890963D01*
X49948354Y-133324472D01*
X50154568Y-133757980D01*
X50210675Y-133758006D01*
X50266783Y-133758032D01*
X50673881Y-132895514D01*
X50676264Y-133530789D01*
X50678646Y-134166064D01*
X50854714Y-134166064D01*
X50854714Y-132691075D01*
X50723927Y-132693648D01*
X50723927Y-132693648D01*
G37*
X50723927Y-132693648D02*
X50593141Y-132696221D01*
X50397862Y-133102295D01*
X50358989Y-133182686D01*
X50322399Y-133257496D01*
X50288893Y-133325153D01*
X50259267Y-133384085D01*
X50234321Y-133432720D01*
X50214853Y-133469485D01*
X50201662Y-133492808D01*
X50195545Y-133501118D01*
X50195344Y-133501054D01*
X50190087Y-133491404D01*
X50177840Y-133466598D01*
X50159397Y-133428314D01*
X50135554Y-133378228D01*
X50107107Y-133318018D01*
X50074850Y-133249362D01*
X50039580Y-133173936D01*
X50002815Y-133094979D01*
X49817525Y-132696221D01*
X49682341Y-132693655D01*
X49547156Y-132691088D01*
X49547156Y-134166064D01*
X49741899Y-134166064D01*
X49742019Y-133528514D01*
X49742140Y-132890963D01*
X49948354Y-133324472D01*
X50154568Y-133757980D01*
X50210675Y-133758006D01*
X50266783Y-133758032D01*
X50673881Y-132895514D01*
X50676264Y-133530789D01*
X50678646Y-134166064D01*
X50854714Y-134166064D01*
X50854714Y-132691075D01*
X50723927Y-132693648D01*
D11*
X174710000Y-76190001D02*
X174710000Y-77090000D01*
D12*
X174210000Y-73990000D02*
X174210000Y-75789999D01*
D13*
X173080000Y-77490000D02*
X173080000Y-75250000D01*
D14*
X164610000Y-75690000D02*
X166010000Y-75690000D01*
D15*
X165010000Y-78390000D02*
X165010000Y-75890000D01*
D16*
X166310000Y-77190000D02*
X173010000Y-77190000D01*
D17*
X164310000Y-75390000D02*
X164310000Y-76390000D01*
X164310000Y-76390000D02*
X164510000Y-76390000D01*
X164530000Y-76390000D02*
X164530000Y-78640000D01*
X164510000Y-78640000D02*
X164310000Y-78640000D01*
X174810000Y-76090000D02*
X174610000Y-76090000D01*
X174580000Y-76090000D02*
X174580000Y-73850000D01*
X174610000Y-73850000D02*
X174810000Y-73850000D01*
X174810000Y-73490000D02*
X174810000Y-73850000D01*
X174810000Y-77090000D02*
X174810000Y-76090000D01*
X174810000Y-73490000D02*
X171530000Y-73490000D01*
X169310000Y-75390000D02*
X164310000Y-75390000D01*
X164310000Y-78990000D02*
X172710001Y-78990000D01*
X171526318Y-73511471D02*
G75*
G02X169310000Y-75390000I-2151318J291471D01*
G01*
X174810000Y-77089999D02*
G75*
G02X172710001Y-78990000I-2000000J99999D01*
G01*
X164310000Y-78640000D02*
X164310000Y-78990000D01*
D15*
X171926318Y-73911471D02*
G75*
G02X169710000Y-75790000I-2151318J291471D01*
G01*
D14*
X174610000Y-73690000D02*
X171910000Y-73690000D01*
D18*
X164510000Y-78790000D02*
X165910000Y-78790000D01*
X164510000Y-76290000D02*
X164510000Y-75590000D01*
X69260000Y-97245000D02*
X69260000Y-96545000D01*
X69260000Y-99745000D02*
X70660000Y-99745000D01*
D14*
X79360000Y-94645000D02*
X76660000Y-94645000D01*
D15*
X76676318Y-94866471D02*
G75*
G02X74460000Y-96745000I-2151318J291471D01*
G01*
D17*
X69060000Y-99595000D02*
X69060000Y-99945000D01*
X79560000Y-98044999D02*
G75*
G02X77460001Y-99945000I-2000000J99999D01*
G01*
X76276318Y-94466471D02*
G75*
G02X74060000Y-96345000I-2151318J291471D01*
G01*
X69060000Y-99945000D02*
X77460001Y-99945000D01*
X74060000Y-96345000D02*
X69060000Y-96345000D01*
X79560000Y-94445000D02*
X76280000Y-94445000D01*
X79560000Y-98045000D02*
X79560000Y-97045000D01*
X79560000Y-94445000D02*
X79560000Y-94805000D01*
X79360000Y-94805000D02*
X79560000Y-94805000D01*
X79330000Y-97045000D02*
X79330000Y-94805000D01*
X79560000Y-97045000D02*
X79360000Y-97045000D01*
X69260000Y-99595000D02*
X69060000Y-99595000D01*
X69280000Y-97345000D02*
X69280000Y-99595000D01*
X69060000Y-97345000D02*
X69260000Y-97345000D01*
X69060000Y-96345000D02*
X69060000Y-97345000D01*
D16*
X71060000Y-98145000D02*
X77760000Y-98145000D01*
D15*
X69760000Y-99345000D02*
X69760000Y-96845000D01*
D14*
X69360000Y-96645000D02*
X70760000Y-96645000D01*
D13*
X77830000Y-98445000D02*
X77830000Y-96205000D01*
D12*
X78960000Y-94945000D02*
X78960000Y-96744999D01*
D11*
X79460000Y-97145001D02*
X79460000Y-98045000D01*
D17*
X186755000Y-109550000D02*
X198755000Y-109550000D01*
X186755000Y-115550000D02*
X186755000Y-109550000D01*
X198755000Y-115550000D02*
X186755000Y-115550000D01*
X198755000Y-109550000D02*
X198755000Y-115550000D01*
X184023000Y-103886000D02*
X184023000Y-101346000D01*
X194183000Y-103886000D02*
X184023000Y-103886000D01*
X194183000Y-101346000D02*
X194183000Y-103886000D01*
X184023000Y-101346000D02*
X194183000Y-101346000D01*
X192069172Y-99650020D02*
X193847172Y-99650020D01*
X192069172Y-97364020D02*
X192069172Y-99650020D01*
X193847172Y-97364020D02*
X192069172Y-97364020D01*
X193847172Y-99650020D02*
X193847172Y-97364020D01*
X191300377Y-99663869D02*
X191300377Y-97377869D01*
X191300377Y-97377869D02*
X189522377Y-97377869D01*
X189522377Y-97377869D02*
X189522377Y-99663869D01*
X189522377Y-99663869D02*
X191300377Y-99663869D01*
X186982377Y-99663869D02*
X188760377Y-99663869D01*
X186982377Y-97377869D02*
X186982377Y-99663869D01*
X188760377Y-97377869D02*
X186982377Y-97377869D01*
X188760377Y-99663869D02*
X188760377Y-97377869D01*
X186220377Y-99663869D02*
X186220377Y-97377869D01*
X186220377Y-97377869D02*
X184442377Y-97377869D01*
X184442377Y-97377869D02*
X184442377Y-99663869D01*
X184442377Y-99663869D02*
X186220377Y-99663869D01*
X186166000Y-106664000D02*
X184166000Y-106664000D01*
X186166000Y-104664000D02*
X186166000Y-106664000D01*
X184166000Y-104664000D02*
X186166000Y-104664000D01*
X184166000Y-106664000D02*
X184166000Y-104664000D01*
X184166000Y-108950000D02*
X184166000Y-106950000D01*
X184166000Y-106950000D02*
X186166000Y-106950000D01*
X186166000Y-106950000D02*
X186166000Y-108950000D01*
X186166000Y-108950000D02*
X184166000Y-108950000D01*
X192635000Y-104664000D02*
X192635000Y-106664000D01*
X189635000Y-104664000D02*
X192635000Y-104664000D01*
X189635000Y-106664000D02*
X189635000Y-104664000D01*
X192635000Y-106664000D02*
X189635000Y-106664000D01*
X192635000Y-108950000D02*
X189635000Y-108950000D01*
X189635000Y-108950000D02*
X189635000Y-106950000D01*
X189635000Y-106950000D02*
X192635000Y-106950000D01*
X192635000Y-106950000D02*
X192635000Y-108950000D01*
X198408679Y-101633437D02*
X198658679Y-101633437D01*
X198658679Y-101633437D02*
X198658679Y-107633437D01*
X198658679Y-107633437D02*
X198408679Y-107633437D01*
X195408679Y-107633437D02*
X195158679Y-107633437D01*
X195158679Y-107633437D02*
X195158679Y-101633437D01*
X195158679Y-101633437D02*
X195408679Y-101633437D01*
D18*
X69260000Y-78195000D02*
X69260000Y-77495000D01*
X69260000Y-80695000D02*
X70660000Y-80695000D01*
D14*
X79360000Y-75595000D02*
X76660000Y-75595000D01*
D15*
X76676318Y-75816471D02*
G75*
G02X74460000Y-77695000I-2151318J291471D01*
G01*
D17*
X69060000Y-80545000D02*
X69060000Y-80895000D01*
X79560000Y-78994999D02*
G75*
G02X77460001Y-80895000I-2000000J99999D01*
G01*
X76276318Y-75416471D02*
G75*
G02X74060000Y-77295000I-2151318J291471D01*
G01*
X69060000Y-80895000D02*
X77460001Y-80895000D01*
X74060000Y-77295000D02*
X69060000Y-77295000D01*
X79560000Y-75395000D02*
X76280000Y-75395000D01*
X79560000Y-78995000D02*
X79560000Y-77995000D01*
X79560000Y-75395000D02*
X79560000Y-75755000D01*
X79360000Y-75755000D02*
X79560000Y-75755000D01*
X79330000Y-77995000D02*
X79330000Y-75755000D01*
X79560000Y-77995000D02*
X79360000Y-77995000D01*
X69260000Y-80545000D02*
X69060000Y-80545000D01*
X69280000Y-78295000D02*
X69280000Y-80545000D01*
X69060000Y-78295000D02*
X69260000Y-78295000D01*
X69060000Y-77295000D02*
X69060000Y-78295000D01*
D16*
X71060000Y-79095000D02*
X77760000Y-79095000D01*
D15*
X69760000Y-80295000D02*
X69760000Y-77795000D01*
D14*
X69360000Y-77595000D02*
X70760000Y-77595000D01*
D13*
X77830000Y-79395000D02*
X77830000Y-77155000D01*
D12*
X78960000Y-75895000D02*
X78960000Y-77694999D01*
D11*
X79460000Y-78095001D02*
X79460000Y-78995000D01*
D18*
X88310000Y-78195000D02*
X88310000Y-77495000D01*
X88310000Y-80695000D02*
X89710000Y-80695000D01*
D14*
X98410000Y-75595000D02*
X95710000Y-75595000D01*
D15*
X95726318Y-75816471D02*
G75*
G02X93510000Y-77695000I-2151318J291471D01*
G01*
D17*
X88110000Y-80545000D02*
X88110000Y-80895000D01*
X98610000Y-78994999D02*
G75*
G02X96510001Y-80895000I-2000000J99999D01*
G01*
X95326318Y-75416471D02*
G75*
G02X93110000Y-77295000I-2151318J291471D01*
G01*
X88110000Y-80895000D02*
X96510001Y-80895000D01*
X93110000Y-77295000D02*
X88110000Y-77295000D01*
X98610000Y-75395000D02*
X95330000Y-75395000D01*
X98610000Y-78995000D02*
X98610000Y-77995000D01*
X98610000Y-75395000D02*
X98610000Y-75755000D01*
X98410000Y-75755000D02*
X98610000Y-75755000D01*
X98380000Y-77995000D02*
X98380000Y-75755000D01*
X98610000Y-77995000D02*
X98410000Y-77995000D01*
X88310000Y-80545000D02*
X88110000Y-80545000D01*
X88330000Y-78295000D02*
X88330000Y-80545000D01*
X88110000Y-78295000D02*
X88310000Y-78295000D01*
X88110000Y-77295000D02*
X88110000Y-78295000D01*
D16*
X90110000Y-79095000D02*
X96810000Y-79095000D01*
D15*
X88810000Y-80295000D02*
X88810000Y-77795000D01*
D14*
X88410000Y-77595000D02*
X89810000Y-77595000D01*
D13*
X96880000Y-79395000D02*
X96880000Y-77155000D01*
D12*
X98010000Y-75895000D02*
X98010000Y-77694999D01*
D11*
X98510000Y-78095001D02*
X98510000Y-78995000D01*
D18*
X107360000Y-73750000D02*
X107360000Y-73050000D01*
X107360000Y-76250000D02*
X108760000Y-76250000D01*
D14*
X117460000Y-71150000D02*
X114760000Y-71150000D01*
D15*
X114776318Y-71371471D02*
G75*
G02X112560000Y-73250000I-2151318J291471D01*
G01*
D17*
X107160000Y-76100000D02*
X107160000Y-76450000D01*
X117660000Y-74549999D02*
G75*
G02X115560001Y-76450000I-2000000J99999D01*
G01*
X114376318Y-70971471D02*
G75*
G02X112160000Y-72850000I-2151318J291471D01*
G01*
X107160000Y-76450000D02*
X115560001Y-76450000D01*
X112160000Y-72850000D02*
X107160000Y-72850000D01*
X117660000Y-70950000D02*
X114380000Y-70950000D01*
X117660000Y-74550000D02*
X117660000Y-73550000D01*
X117660000Y-70950000D02*
X117660000Y-71310000D01*
X117460000Y-71310000D02*
X117660000Y-71310000D01*
X117430000Y-73550000D02*
X117430000Y-71310000D01*
X117660000Y-73550000D02*
X117460000Y-73550000D01*
X107360000Y-76100000D02*
X107160000Y-76100000D01*
X107380000Y-73850000D02*
X107380000Y-76100000D01*
X107160000Y-73850000D02*
X107360000Y-73850000D01*
X107160000Y-72850000D02*
X107160000Y-73850000D01*
D16*
X109160000Y-74650000D02*
X115860000Y-74650000D01*
D15*
X107860000Y-75850000D02*
X107860000Y-73350000D01*
D14*
X107460000Y-73150000D02*
X108860000Y-73150000D01*
D13*
X115930000Y-74950000D02*
X115930000Y-72710000D01*
D12*
X117060000Y-71450000D02*
X117060000Y-73249999D01*
D11*
X117560000Y-73650001D02*
X117560000Y-74550000D01*
X136610000Y-71110001D02*
X136610000Y-72010000D01*
D12*
X136110000Y-68910000D02*
X136110000Y-70709999D01*
D13*
X134980000Y-72410000D02*
X134980000Y-70170000D01*
D14*
X126510000Y-70610000D02*
X127910000Y-70610000D01*
D15*
X126910000Y-73310000D02*
X126910000Y-70810000D01*
D16*
X128210000Y-72110000D02*
X134910000Y-72110000D01*
D17*
X126210000Y-70310000D02*
X126210000Y-71310000D01*
X126210000Y-71310000D02*
X126410000Y-71310000D01*
X126430000Y-71310000D02*
X126430000Y-73560000D01*
X126410000Y-73560000D02*
X126210000Y-73560000D01*
X136710000Y-71010000D02*
X136510000Y-71010000D01*
X136480000Y-71010000D02*
X136480000Y-68770000D01*
X136510000Y-68770000D02*
X136710000Y-68770000D01*
X136710000Y-68410000D02*
X136710000Y-68770000D01*
X136710000Y-72010000D02*
X136710000Y-71010000D01*
X136710000Y-68410000D02*
X133430000Y-68410000D01*
X131210000Y-70310000D02*
X126210000Y-70310000D01*
X126210000Y-73910000D02*
X134610001Y-73910000D01*
X133426318Y-68431471D02*
G75*
G02X131210000Y-70310000I-2151318J291471D01*
G01*
X136710000Y-72009999D02*
G75*
G02X134610001Y-73910000I-2000000J99999D01*
G01*
X126210000Y-73560000D02*
X126210000Y-73910000D01*
D15*
X133826318Y-68831471D02*
G75*
G02X131610000Y-70710000I-2151318J291471D01*
G01*
D14*
X136510000Y-68610000D02*
X133810000Y-68610000D01*
D18*
X126410000Y-73710000D02*
X127810000Y-73710000D01*
X126410000Y-71210000D02*
X126410000Y-70510000D01*
X145460000Y-73750000D02*
X145460000Y-73050000D01*
X145460000Y-76250000D02*
X146860000Y-76250000D01*
D14*
X155560000Y-71150000D02*
X152860000Y-71150000D01*
D15*
X152876318Y-71371471D02*
G75*
G02X150660000Y-73250000I-2151318J291471D01*
G01*
D17*
X145260000Y-76100000D02*
X145260000Y-76450000D01*
X155760000Y-74549999D02*
G75*
G02X153660001Y-76450000I-2000000J99999D01*
G01*
X152476318Y-70971471D02*
G75*
G02X150260000Y-72850000I-2151318J291471D01*
G01*
X145260000Y-76450000D02*
X153660001Y-76450000D01*
X150260000Y-72850000D02*
X145260000Y-72850000D01*
X155760000Y-70950000D02*
X152480000Y-70950000D01*
X155760000Y-74550000D02*
X155760000Y-73550000D01*
X155760000Y-70950000D02*
X155760000Y-71310000D01*
X155560000Y-71310000D02*
X155760000Y-71310000D01*
X155530000Y-73550000D02*
X155530000Y-71310000D01*
X155760000Y-73550000D02*
X155560000Y-73550000D01*
X145460000Y-76100000D02*
X145260000Y-76100000D01*
X145480000Y-73850000D02*
X145480000Y-76100000D01*
X145260000Y-73850000D02*
X145460000Y-73850000D01*
X145260000Y-72850000D02*
X145260000Y-73850000D01*
D16*
X147260000Y-74650000D02*
X153960000Y-74650000D01*
D15*
X145960000Y-75850000D02*
X145960000Y-73350000D01*
D14*
X145560000Y-73150000D02*
X146960000Y-73150000D01*
D13*
X154030000Y-74950000D02*
X154030000Y-72710000D01*
D12*
X155160000Y-71450000D02*
X155160000Y-73249999D01*
D11*
X155660000Y-73650001D02*
X155660000Y-74550000D01*
D18*
X88310000Y-97245000D02*
X88310000Y-96545000D01*
X88310000Y-99745000D02*
X89710000Y-99745000D01*
D14*
X98410000Y-94645000D02*
X95710000Y-94645000D01*
D15*
X95726318Y-94866471D02*
G75*
G02X93510000Y-96745000I-2151318J291471D01*
G01*
D17*
X88110000Y-99595000D02*
X88110000Y-99945000D01*
X98610000Y-98044999D02*
G75*
G02X96510001Y-99945000I-2000000J99999D01*
G01*
X95326318Y-94466471D02*
G75*
G02X93110000Y-96345000I-2151318J291471D01*
G01*
X88110000Y-99945000D02*
X96510001Y-99945000D01*
X93110000Y-96345000D02*
X88110000Y-96345000D01*
X98610000Y-94445000D02*
X95330000Y-94445000D01*
X98610000Y-98045000D02*
X98610000Y-97045000D01*
X98610000Y-94445000D02*
X98610000Y-94805000D01*
X98410000Y-94805000D02*
X98610000Y-94805000D01*
X98380000Y-97045000D02*
X98380000Y-94805000D01*
X98610000Y-97045000D02*
X98410000Y-97045000D01*
X88310000Y-99595000D02*
X88110000Y-99595000D01*
X88330000Y-97345000D02*
X88330000Y-99595000D01*
X88110000Y-97345000D02*
X88310000Y-97345000D01*
X88110000Y-96345000D02*
X88110000Y-97345000D01*
D16*
X90110000Y-98145000D02*
X96810000Y-98145000D01*
D15*
X88810000Y-99345000D02*
X88810000Y-96845000D01*
D14*
X88410000Y-96645000D02*
X89810000Y-96645000D01*
D13*
X96880000Y-98445000D02*
X96880000Y-96205000D01*
D12*
X98010000Y-94945000D02*
X98010000Y-96744999D01*
D11*
X98510000Y-97145001D02*
X98510000Y-98045000D01*
X117560000Y-92700001D02*
X117560000Y-93600000D01*
D12*
X117060000Y-90500000D02*
X117060000Y-92299999D01*
D13*
X115930000Y-94000000D02*
X115930000Y-91760000D01*
D14*
X107460000Y-92200000D02*
X108860000Y-92200000D01*
D15*
X107860000Y-94900000D02*
X107860000Y-92400000D01*
D16*
X109160000Y-93700000D02*
X115860000Y-93700000D01*
D17*
X107160000Y-91900000D02*
X107160000Y-92900000D01*
X107160000Y-92900000D02*
X107360000Y-92900000D01*
X107380000Y-92900000D02*
X107380000Y-95150000D01*
X107360000Y-95150000D02*
X107160000Y-95150000D01*
X117660000Y-92600000D02*
X117460000Y-92600000D01*
X117430000Y-92600000D02*
X117430000Y-90360000D01*
X117460000Y-90360000D02*
X117660000Y-90360000D01*
X117660000Y-90000000D02*
X117660000Y-90360000D01*
X117660000Y-93600000D02*
X117660000Y-92600000D01*
X117660000Y-90000000D02*
X114380000Y-90000000D01*
X112160000Y-91900000D02*
X107160000Y-91900000D01*
X107160000Y-95500000D02*
X115560001Y-95500000D01*
X114376318Y-90021471D02*
G75*
G02X112160000Y-91900000I-2151318J291471D01*
G01*
X117660000Y-93599999D02*
G75*
G02X115560001Y-95500000I-2000000J99999D01*
G01*
X107160000Y-95150000D02*
X107160000Y-95500000D01*
D15*
X114776318Y-90421471D02*
G75*
G02X112560000Y-92300000I-2151318J291471D01*
G01*
D14*
X117460000Y-90200000D02*
X114760000Y-90200000D01*
D18*
X107360000Y-95300000D02*
X108760000Y-95300000D01*
X107360000Y-92800000D02*
X107360000Y-92100000D01*
X126410000Y-90260000D02*
X126410000Y-89560000D01*
X126410000Y-92760000D02*
X127810000Y-92760000D01*
D14*
X136510000Y-87660000D02*
X133810000Y-87660000D01*
D15*
X133826318Y-87881471D02*
G75*
G02X131610000Y-89760000I-2151318J291471D01*
G01*
D17*
X126210000Y-92610000D02*
X126210000Y-92960000D01*
X136710000Y-91059999D02*
G75*
G02X134610001Y-92960000I-2000000J99999D01*
G01*
X133426318Y-87481471D02*
G75*
G02X131210000Y-89360000I-2151318J291471D01*
G01*
X126210000Y-92960000D02*
X134610001Y-92960000D01*
X131210000Y-89360000D02*
X126210000Y-89360000D01*
X136710000Y-87460000D02*
X133430000Y-87460000D01*
X136710000Y-91060000D02*
X136710000Y-90060000D01*
X136710000Y-87460000D02*
X136710000Y-87820000D01*
X136510000Y-87820000D02*
X136710000Y-87820000D01*
X136480000Y-90060000D02*
X136480000Y-87820000D01*
X136710000Y-90060000D02*
X136510000Y-90060000D01*
X126410000Y-92610000D02*
X126210000Y-92610000D01*
X126430000Y-90360000D02*
X126430000Y-92610000D01*
X126210000Y-90360000D02*
X126410000Y-90360000D01*
X126210000Y-89360000D02*
X126210000Y-90360000D01*
D16*
X128210000Y-91160000D02*
X134910000Y-91160000D01*
D15*
X126910000Y-92360000D02*
X126910000Y-89860000D01*
D14*
X126510000Y-89660000D02*
X127910000Y-89660000D01*
D13*
X134980000Y-91460000D02*
X134980000Y-89220000D01*
D12*
X136110000Y-87960000D02*
X136110000Y-89759999D01*
D11*
X136610000Y-90160001D02*
X136610000Y-91060000D01*
D18*
X145460000Y-92800000D02*
X145460000Y-92100000D01*
X145460000Y-95300000D02*
X146860000Y-95300000D01*
D14*
X155560000Y-90200000D02*
X152860000Y-90200000D01*
D15*
X152876318Y-90421471D02*
G75*
G02X150660000Y-92300000I-2151318J291471D01*
G01*
D17*
X145260000Y-95150000D02*
X145260000Y-95500000D01*
X155760000Y-93599999D02*
G75*
G02X153660001Y-95500000I-2000000J99999D01*
G01*
X152476318Y-90021471D02*
G75*
G02X150260000Y-91900000I-2151318J291471D01*
G01*
X145260000Y-95500000D02*
X153660001Y-95500000D01*
X150260000Y-91900000D02*
X145260000Y-91900000D01*
X155760000Y-90000000D02*
X152480000Y-90000000D01*
X155760000Y-93600000D02*
X155760000Y-92600000D01*
X155760000Y-90000000D02*
X155760000Y-90360000D01*
X155560000Y-90360000D02*
X155760000Y-90360000D01*
X155530000Y-92600000D02*
X155530000Y-90360000D01*
X155760000Y-92600000D02*
X155560000Y-92600000D01*
X145460000Y-95150000D02*
X145260000Y-95150000D01*
X145480000Y-92900000D02*
X145480000Y-95150000D01*
X145260000Y-92900000D02*
X145460000Y-92900000D01*
X145260000Y-91900000D02*
X145260000Y-92900000D01*
D16*
X147260000Y-93700000D02*
X153960000Y-93700000D01*
D15*
X145960000Y-94900000D02*
X145960000Y-92400000D01*
D14*
X145560000Y-92200000D02*
X146960000Y-92200000D01*
D13*
X154030000Y-94000000D02*
X154030000Y-91760000D01*
D12*
X155160000Y-90500000D02*
X155160000Y-92299999D01*
D11*
X155660000Y-92700001D02*
X155660000Y-93600000D01*
X174710000Y-95240001D02*
X174710000Y-96140000D01*
D12*
X174210000Y-93040000D02*
X174210000Y-94839999D01*
D13*
X173080000Y-96540000D02*
X173080000Y-94300000D01*
D14*
X164610000Y-94740000D02*
X166010000Y-94740000D01*
D15*
X165010000Y-97440000D02*
X165010000Y-94940000D01*
D16*
X166310000Y-96240000D02*
X173010000Y-96240000D01*
D17*
X164310000Y-94440000D02*
X164310000Y-95440000D01*
X164310000Y-95440000D02*
X164510000Y-95440000D01*
X164530000Y-95440000D02*
X164530000Y-97690000D01*
X164510000Y-97690000D02*
X164310000Y-97690000D01*
X174810000Y-95140000D02*
X174610000Y-95140000D01*
X174580000Y-95140000D02*
X174580000Y-92900000D01*
X174610000Y-92900000D02*
X174810000Y-92900000D01*
X174810000Y-92540000D02*
X174810000Y-92900000D01*
X174810000Y-96140000D02*
X174810000Y-95140000D01*
X174810000Y-92540000D02*
X171530000Y-92540000D01*
X169310000Y-94440000D02*
X164310000Y-94440000D01*
X164310000Y-98040000D02*
X172710001Y-98040000D01*
X171526318Y-92561471D02*
G75*
G02X169310000Y-94440000I-2151318J291471D01*
G01*
X174810000Y-96139999D02*
G75*
G02X172710001Y-98040000I-2000000J99999D01*
G01*
X164310000Y-97690000D02*
X164310000Y-98040000D01*
D15*
X171926318Y-92961471D02*
G75*
G02X169710000Y-94840000I-2151318J291471D01*
G01*
D14*
X174610000Y-92740000D02*
X171910000Y-92740000D01*
D18*
X164510000Y-97840000D02*
X165910000Y-97840000D01*
X164510000Y-95340000D02*
X164510000Y-94640000D01*
X69260000Y-116295000D02*
X69260000Y-115595000D01*
X69260000Y-118795000D02*
X70660000Y-118795000D01*
D14*
X79360000Y-113695000D02*
X76660000Y-113695000D01*
D15*
X76676318Y-113916471D02*
G75*
G02X74460000Y-115795000I-2151318J291471D01*
G01*
D17*
X69060000Y-118645000D02*
X69060000Y-118995000D01*
X79560000Y-117094999D02*
G75*
G02X77460001Y-118995000I-2000000J99999D01*
G01*
X76276318Y-113516471D02*
G75*
G02X74060000Y-115395000I-2151318J291471D01*
G01*
X69060000Y-118995000D02*
X77460001Y-118995000D01*
X74060000Y-115395000D02*
X69060000Y-115395000D01*
X79560000Y-113495000D02*
X76280000Y-113495000D01*
X79560000Y-117095000D02*
X79560000Y-116095000D01*
X79560000Y-113495000D02*
X79560000Y-113855000D01*
X79360000Y-113855000D02*
X79560000Y-113855000D01*
X79330000Y-116095000D02*
X79330000Y-113855000D01*
X79560000Y-116095000D02*
X79360000Y-116095000D01*
X69260000Y-118645000D02*
X69060000Y-118645000D01*
X69280000Y-116395000D02*
X69280000Y-118645000D01*
X69060000Y-116395000D02*
X69260000Y-116395000D01*
X69060000Y-115395000D02*
X69060000Y-116395000D01*
D16*
X71060000Y-117195000D02*
X77760000Y-117195000D01*
D15*
X69760000Y-118395000D02*
X69760000Y-115895000D01*
D14*
X69360000Y-115695000D02*
X70760000Y-115695000D01*
D13*
X77830000Y-117495000D02*
X77830000Y-115255000D01*
D12*
X78960000Y-113995000D02*
X78960000Y-115794999D01*
D11*
X79460000Y-116195001D02*
X79460000Y-117095000D01*
D18*
X88310000Y-116295000D02*
X88310000Y-115595000D01*
X88310000Y-118795000D02*
X89710000Y-118795000D01*
D14*
X98410000Y-113695000D02*
X95710000Y-113695000D01*
D15*
X95726318Y-113916471D02*
G75*
G02X93510000Y-115795000I-2151318J291471D01*
G01*
D17*
X88110000Y-118645000D02*
X88110000Y-118995000D01*
X98610000Y-117094999D02*
G75*
G02X96510001Y-118995000I-2000000J99999D01*
G01*
X95326318Y-113516471D02*
G75*
G02X93110000Y-115395000I-2151318J291471D01*
G01*
X88110000Y-118995000D02*
X96510001Y-118995000D01*
X93110000Y-115395000D02*
X88110000Y-115395000D01*
X98610000Y-113495000D02*
X95330000Y-113495000D01*
X98610000Y-117095000D02*
X98610000Y-116095000D01*
X98610000Y-113495000D02*
X98610000Y-113855000D01*
X98410000Y-113855000D02*
X98610000Y-113855000D01*
X98380000Y-116095000D02*
X98380000Y-113855000D01*
X98610000Y-116095000D02*
X98410000Y-116095000D01*
X88310000Y-118645000D02*
X88110000Y-118645000D01*
X88330000Y-116395000D02*
X88330000Y-118645000D01*
X88110000Y-116395000D02*
X88310000Y-116395000D01*
X88110000Y-115395000D02*
X88110000Y-116395000D01*
D16*
X90110000Y-117195000D02*
X96810000Y-117195000D01*
D15*
X88810000Y-118395000D02*
X88810000Y-115895000D01*
D14*
X88410000Y-115695000D02*
X89810000Y-115695000D01*
D13*
X96880000Y-117495000D02*
X96880000Y-115255000D01*
D12*
X98010000Y-113995000D02*
X98010000Y-115794999D01*
D11*
X98510000Y-116195001D02*
X98510000Y-117095000D01*
D18*
X107360000Y-111850000D02*
X107360000Y-111150000D01*
X107360000Y-114350000D02*
X108760000Y-114350000D01*
D14*
X117460000Y-109250000D02*
X114760000Y-109250000D01*
D15*
X114776318Y-109471471D02*
G75*
G02X112560000Y-111350000I-2151318J291471D01*
G01*
D17*
X107160000Y-114200000D02*
X107160000Y-114550000D01*
X117660000Y-112649999D02*
G75*
G02X115560001Y-114550000I-2000000J99999D01*
G01*
X114376318Y-109071471D02*
G75*
G02X112160000Y-110950000I-2151318J291471D01*
G01*
X107160000Y-114550000D02*
X115560001Y-114550000D01*
X112160000Y-110950000D02*
X107160000Y-110950000D01*
X117660000Y-109050000D02*
X114380000Y-109050000D01*
X117660000Y-112650000D02*
X117660000Y-111650000D01*
X117660000Y-109050000D02*
X117660000Y-109410000D01*
X117460000Y-109410000D02*
X117660000Y-109410000D01*
X117430000Y-111650000D02*
X117430000Y-109410000D01*
X117660000Y-111650000D02*
X117460000Y-111650000D01*
X107360000Y-114200000D02*
X107160000Y-114200000D01*
X107380000Y-111950000D02*
X107380000Y-114200000D01*
X107160000Y-111950000D02*
X107360000Y-111950000D01*
X107160000Y-110950000D02*
X107160000Y-111950000D01*
D16*
X109160000Y-112750000D02*
X115860000Y-112750000D01*
D15*
X107860000Y-113950000D02*
X107860000Y-111450000D01*
D14*
X107460000Y-111250000D02*
X108860000Y-111250000D01*
D13*
X115930000Y-113050000D02*
X115930000Y-110810000D01*
D12*
X117060000Y-109550000D02*
X117060000Y-111349999D01*
D11*
X117560000Y-111750001D02*
X117560000Y-112650000D01*
X136610000Y-109210001D02*
X136610000Y-110110000D01*
D12*
X136110000Y-107010000D02*
X136110000Y-108809999D01*
D13*
X134980000Y-110510000D02*
X134980000Y-108270000D01*
D14*
X126510000Y-108710000D02*
X127910000Y-108710000D01*
D15*
X126910000Y-111410000D02*
X126910000Y-108910000D01*
D16*
X128210000Y-110210000D02*
X134910000Y-110210000D01*
D17*
X126210000Y-108410000D02*
X126210000Y-109410000D01*
X126210000Y-109410000D02*
X126410000Y-109410000D01*
X126430000Y-109410000D02*
X126430000Y-111660000D01*
X126410000Y-111660000D02*
X126210000Y-111660000D01*
X136710000Y-109110000D02*
X136510000Y-109110000D01*
X136480000Y-109110000D02*
X136480000Y-106870000D01*
X136510000Y-106870000D02*
X136710000Y-106870000D01*
X136710000Y-106510000D02*
X136710000Y-106870000D01*
X136710000Y-110110000D02*
X136710000Y-109110000D01*
X136710000Y-106510000D02*
X133430000Y-106510000D01*
X131210000Y-108410000D02*
X126210000Y-108410000D01*
X126210000Y-112010000D02*
X134610001Y-112010000D01*
X133426318Y-106531471D02*
G75*
G02X131210000Y-108410000I-2151318J291471D01*
G01*
X136710000Y-110109999D02*
G75*
G02X134610001Y-112010000I-2000000J99999D01*
G01*
X126210000Y-111660000D02*
X126210000Y-112010000D01*
D15*
X133826318Y-106931471D02*
G75*
G02X131610000Y-108810000I-2151318J291471D01*
G01*
D14*
X136510000Y-106710000D02*
X133810000Y-106710000D01*
D18*
X126410000Y-111810000D02*
X127810000Y-111810000D01*
X126410000Y-109310000D02*
X126410000Y-108610000D01*
D11*
X155660000Y-111750001D02*
X155660000Y-112650000D01*
D12*
X155160000Y-109550000D02*
X155160000Y-111349999D01*
D13*
X154030000Y-113050000D02*
X154030000Y-110810000D01*
D14*
X145560000Y-111250000D02*
X146960000Y-111250000D01*
D15*
X145960000Y-113950000D02*
X145960000Y-111450000D01*
D16*
X147260000Y-112750000D02*
X153960000Y-112750000D01*
D17*
X145260000Y-110950000D02*
X145260000Y-111950000D01*
X145260000Y-111950000D02*
X145460000Y-111950000D01*
X145480000Y-111950000D02*
X145480000Y-114200000D01*
X145460000Y-114200000D02*
X145260000Y-114200000D01*
X155760000Y-111650000D02*
X155560000Y-111650000D01*
X155530000Y-111650000D02*
X155530000Y-109410000D01*
X155560000Y-109410000D02*
X155760000Y-109410000D01*
X155760000Y-109050000D02*
X155760000Y-109410000D01*
X155760000Y-112650000D02*
X155760000Y-111650000D01*
X155760000Y-109050000D02*
X152480000Y-109050000D01*
X150260000Y-110950000D02*
X145260000Y-110950000D01*
X145260000Y-114550000D02*
X153660001Y-114550000D01*
X152476318Y-109071471D02*
G75*
G02X150260000Y-110950000I-2151318J291471D01*
G01*
X155760000Y-112649999D02*
G75*
G02X153660001Y-114550000I-2000000J99999D01*
G01*
X145260000Y-114200000D02*
X145260000Y-114550000D01*
D15*
X152876318Y-109471471D02*
G75*
G02X150660000Y-111350000I-2151318J291471D01*
G01*
D14*
X155560000Y-109250000D02*
X152860000Y-109250000D01*
D18*
X145460000Y-114350000D02*
X146860000Y-114350000D01*
X145460000Y-111850000D02*
X145460000Y-111150000D01*
D11*
X174710000Y-114290001D02*
X174710000Y-115190000D01*
D12*
X174210000Y-112090000D02*
X174210000Y-113889999D01*
D13*
X173080000Y-115590000D02*
X173080000Y-113350000D01*
D14*
X164610000Y-113790000D02*
X166010000Y-113790000D01*
D15*
X165010000Y-116490000D02*
X165010000Y-113990000D01*
D16*
X166310000Y-115290000D02*
X173010000Y-115290000D01*
D17*
X164310000Y-113490000D02*
X164310000Y-114490000D01*
X164310000Y-114490000D02*
X164510000Y-114490000D01*
X164530000Y-114490000D02*
X164530000Y-116740000D01*
X164510000Y-116740000D02*
X164310000Y-116740000D01*
X174810000Y-114190000D02*
X174610000Y-114190000D01*
X174580000Y-114190000D02*
X174580000Y-111950000D01*
X174610000Y-111950000D02*
X174810000Y-111950000D01*
X174810000Y-111590000D02*
X174810000Y-111950000D01*
X174810000Y-115190000D02*
X174810000Y-114190000D01*
X174810000Y-111590000D02*
X171530000Y-111590000D01*
X169310000Y-113490000D02*
X164310000Y-113490000D01*
X164310000Y-117090000D02*
X172710001Y-117090000D01*
X171526318Y-111611471D02*
G75*
G02X169310000Y-113490000I-2151318J291471D01*
G01*
X174810000Y-115189999D02*
G75*
G02X172710001Y-117090000I-2000000J99999D01*
G01*
X164310000Y-116740000D02*
X164310000Y-117090000D01*
D15*
X171926318Y-112011471D02*
G75*
G02X169710000Y-113890000I-2151318J291471D01*
G01*
D14*
X174610000Y-111790000D02*
X171910000Y-111790000D01*
D18*
X164510000Y-116890000D02*
X165910000Y-116890000D01*
X164510000Y-114390000D02*
X164510000Y-113690000D01*
D11*
X79460000Y-135245001D02*
X79460000Y-136145000D01*
D12*
X78960000Y-133045000D02*
X78960000Y-134844999D01*
D13*
X77830000Y-136545000D02*
X77830000Y-134305000D01*
D14*
X69360000Y-134745000D02*
X70760000Y-134745000D01*
D15*
X69760000Y-137445000D02*
X69760000Y-134945000D01*
D16*
X71060000Y-136245000D02*
X77760000Y-136245000D01*
D17*
X69060000Y-134445000D02*
X69060000Y-135445000D01*
X69060000Y-135445000D02*
X69260000Y-135445000D01*
X69280000Y-135445000D02*
X69280000Y-137695000D01*
X69260000Y-137695000D02*
X69060000Y-137695000D01*
X79560000Y-135145000D02*
X79360000Y-135145000D01*
X79330000Y-135145000D02*
X79330000Y-132905000D01*
X79360000Y-132905000D02*
X79560000Y-132905000D01*
X79560000Y-132545000D02*
X79560000Y-132905000D01*
X79560000Y-136145000D02*
X79560000Y-135145000D01*
X79560000Y-132545000D02*
X76280000Y-132545000D01*
X74060000Y-134445000D02*
X69060000Y-134445000D01*
X69060000Y-138045000D02*
X77460001Y-138045000D01*
X76276318Y-132566471D02*
G75*
G02X74060000Y-134445000I-2151318J291471D01*
G01*
X79560000Y-136144999D02*
G75*
G02X77460001Y-138045000I-2000000J99999D01*
G01*
X69060000Y-137695000D02*
X69060000Y-138045000D01*
D15*
X76676318Y-132966471D02*
G75*
G02X74460000Y-134845000I-2151318J291471D01*
G01*
D14*
X79360000Y-132745000D02*
X76660000Y-132745000D01*
D18*
X69260000Y-137845000D02*
X70660000Y-137845000D01*
X69260000Y-135345000D02*
X69260000Y-134645000D01*
D11*
X146135000Y-131500001D02*
X146135000Y-132400000D01*
D12*
X145635000Y-129300000D02*
X145635000Y-131099999D01*
D13*
X144505000Y-132800000D02*
X144505000Y-130560000D01*
D14*
X136035000Y-131000000D02*
X137435000Y-131000000D01*
D15*
X136435000Y-133700000D02*
X136435000Y-131200000D01*
D16*
X137735000Y-132500000D02*
X144435000Y-132500000D01*
D17*
X135735000Y-130700000D02*
X135735000Y-131700000D01*
X135735000Y-131700000D02*
X135935000Y-131700000D01*
X135955000Y-131700000D02*
X135955000Y-133950000D01*
X135935000Y-133950000D02*
X135735000Y-133950000D01*
X146235000Y-131400000D02*
X146035000Y-131400000D01*
X146005000Y-131400000D02*
X146005000Y-129160000D01*
X146035000Y-129160000D02*
X146235000Y-129160000D01*
X146235000Y-128800000D02*
X146235000Y-129160000D01*
X146235000Y-132400000D02*
X146235000Y-131400000D01*
X146235000Y-128800000D02*
X142955000Y-128800000D01*
X140735000Y-130700000D02*
X135735000Y-130700000D01*
X135735000Y-134300000D02*
X144135001Y-134300000D01*
X142951318Y-128821471D02*
G75*
G02X140735000Y-130700000I-2151318J291471D01*
G01*
X146235000Y-132399999D02*
G75*
G02X144135001Y-134300000I-2000000J99999D01*
G01*
X135735000Y-133950000D02*
X135735000Y-134300000D01*
D15*
X143351318Y-129221471D02*
G75*
G02X141135000Y-131100000I-2151318J291471D01*
G01*
D14*
X146035000Y-129000000D02*
X143335000Y-129000000D01*
D18*
X135935000Y-134100000D02*
X137335000Y-134100000D01*
X135935000Y-131600000D02*
X135935000Y-130900000D01*
X156230532Y-133128307D02*
X156411705Y-132452159D01*
X155583484Y-135543121D02*
X156935781Y-135905468D01*
D14*
X166659312Y-133230972D02*
X164051313Y-132532161D01*
D15*
X164009754Y-132750308D02*
G75*
G02X161382756Y-133991203I-2002576J838341D01*
G01*
D17*
X155429122Y-135346469D02*
X155338536Y-135684543D01*
X165972513Y-136566883D02*
G75*
G02X163452313Y-137858623I-1905970J614230D01*
G01*
X163726912Y-132260411D02*
G75*
G02X161099913Y-133501305I-2002576J838342D01*
G01*
X155338536Y-135684543D02*
X163452313Y-137858623D01*
X161099913Y-133501305D02*
X156270284Y-132207210D01*
X166904261Y-133089551D02*
X163736025Y-132240624D01*
X165972513Y-136566884D02*
X166231332Y-135600958D01*
X166904261Y-133089551D02*
X166811087Y-133437284D01*
X166617901Y-133385520D02*
X166811087Y-133437284D01*
X166009169Y-135541430D02*
X166588924Y-133377756D01*
X166231332Y-135600958D02*
X166038147Y-135549194D01*
X155622307Y-135398233D02*
X155429122Y-135346469D01*
X156223969Y-133230076D02*
X155641626Y-135403409D01*
X156011465Y-133173136D02*
X156204650Y-133224900D01*
X156270284Y-132207210D02*
X156011465Y-133173136D01*
D16*
X157736261Y-134463514D02*
X164207964Y-136197602D01*
D15*
X156169975Y-135286161D02*
X156817023Y-132871346D01*
D14*
X156482416Y-132574633D02*
X157834712Y-132936980D01*
D13*
X164197934Y-136505497D02*
X164777688Y-134341823D01*
D12*
X166195296Y-133417222D02*
X165729422Y-135155888D01*
D11*
X166108857Y-135671670D02*
X165875920Y-136541002D01*
X189705897Y-130862053D02*
X190485319Y-131312053D01*
D12*
X187550641Y-130195065D02*
X189109486Y-131095065D01*
D13*
X190016730Y-132923674D02*
X188076833Y-131803674D01*
D14*
X184222884Y-139358909D02*
X184922884Y-138146474D01*
D15*
X186761152Y-140362499D02*
X184596089Y-139112499D01*
D16*
X186371922Y-138636666D02*
X189721922Y-132834296D01*
D17*
X183813076Y-139468717D02*
X184679102Y-139968717D01*
X184679102Y-139968717D02*
X184779102Y-139795512D01*
X184789102Y-139778191D02*
X186737659Y-140903191D01*
X186727659Y-140920512D02*
X186627659Y-141093717D01*
X189669294Y-130725450D02*
X189569294Y-130898655D01*
X189554294Y-130924636D02*
X187614397Y-129804636D01*
X187629397Y-129778655D02*
X187729397Y-129605450D01*
X187417628Y-129425450D02*
X187729397Y-129605450D01*
X190535319Y-131225450D02*
X189669294Y-130725450D01*
X187417628Y-129425450D02*
X185777628Y-132266013D01*
X186313076Y-135138590D02*
X183813076Y-139468717D01*
X186930768Y-141268717D02*
X191130768Y-133994103D01*
X185794381Y-132279938D02*
G75*
G02X186313076Y-135138590I-1328080J-1717360D01*
G01*
X190535319Y-131225450D02*
G75*
G02X191130768Y-133994103I-1086602J-1682051D01*
G01*
X186627659Y-141093717D02*
X186930768Y-141268717D01*
D15*
X186340791Y-132133528D02*
G75*
G02X186859486Y-134992180I-1328080J-1717360D01*
G01*
D14*
X187490833Y-129698655D02*
X186140833Y-132036924D01*
D18*
X186857563Y-140995512D02*
X187557563Y-139783076D01*
X184692499Y-139745512D02*
X184086281Y-139395512D01*
D17*
X194794872Y-69088000D02*
X197334872Y-69088000D01*
X197334872Y-69088000D02*
X197334872Y-99568000D01*
X197334872Y-99568000D02*
X194794872Y-99568000D01*
X194794872Y-99568000D02*
X194794872Y-69088000D01*
X179554872Y-69088000D02*
X182094872Y-69088000D01*
X182094872Y-69088000D02*
X182094872Y-99568000D01*
X182094872Y-99568000D02*
X179554872Y-99568000D01*
X179554872Y-99568000D02*
X179554872Y-69088000D01*
X191793880Y-111712595D02*
X191793880Y-112284023D01*
X192793880Y-111998309D02*
X191793880Y-111998309D01*
X192793880Y-113188785D02*
X192317690Y-112855452D01*
X192793880Y-112617357D02*
X191793880Y-112617357D01*
X191793880Y-112998309D01*
X191841500Y-113093547D01*
X191889119Y-113141166D01*
X191984357Y-113188785D01*
X192127214Y-113188785D01*
X192222452Y-113141166D01*
X192270071Y-113093547D01*
X192317690Y-112998309D01*
X192317690Y-112617357D01*
X192793880Y-114188785D02*
X192317690Y-113855452D01*
X192793880Y-113617357D02*
X191793880Y-113617357D01*
X191793880Y-113998309D01*
X191841500Y-114093547D01*
X191889119Y-114141166D01*
X191984357Y-114188785D01*
X192127214Y-114188785D01*
X192222452Y-114141166D01*
X192270071Y-114093547D01*
X192317690Y-113998309D01*
X192317690Y-113617357D01*
X192746261Y-114569738D02*
X192793880Y-114712595D01*
X192793880Y-114950690D01*
X192746261Y-115045928D01*
X192698642Y-115093547D01*
X192603404Y-115141166D01*
X192508166Y-115141166D01*
X192412928Y-115093547D01*
X192365309Y-115045928D01*
X192317690Y-114950690D01*
X192270071Y-114760214D01*
X192222452Y-114664976D01*
X192174833Y-114617357D01*
X192079595Y-114569738D01*
X191984357Y-114569738D01*
X191889119Y-114617357D01*
X191841500Y-114664976D01*
X191793880Y-114760214D01*
X191793880Y-114998309D01*
X191841500Y-115141166D01*
X190495380Y-99968380D02*
X190304904Y-99968380D01*
X190209666Y-100016000D01*
X190114428Y-100111238D01*
X190066809Y-100301714D01*
X190066809Y-100635047D01*
X190114428Y-100825523D01*
X190209666Y-100920761D01*
X190304904Y-100968380D01*
X190495380Y-100968380D01*
X190590619Y-100920761D01*
X190685857Y-100825523D01*
X190733476Y-100635047D01*
X190733476Y-100301714D01*
X190685857Y-100111238D01*
X190590619Y-100016000D01*
X190495380Y-99968380D01*
X189162047Y-100968380D02*
X189638238Y-100968380D01*
X189638238Y-99968380D01*
X188828714Y-100444571D02*
X188495380Y-100444571D01*
X188352523Y-100968380D02*
X188828714Y-100968380D01*
X188828714Y-99968380D01*
X188352523Y-99968380D01*
X187923952Y-100968380D02*
X187923952Y-99968380D01*
X187685857Y-99968380D01*
X187543000Y-100016000D01*
X187447761Y-100111238D01*
X187400142Y-100206476D01*
X187352523Y-100396952D01*
X187352523Y-100539809D01*
X187400142Y-100730285D01*
X187447761Y-100825523D01*
X187543000Y-100920761D01*
X187685857Y-100968380D01*
X187923952Y-100968380D01*
X187184695Y-105064076D02*
X186371895Y-105064076D01*
X186371895Y-105373714D01*
X186410600Y-105451123D01*
X186449304Y-105489828D01*
X186526714Y-105528533D01*
X186642828Y-105528533D01*
X186720238Y-105489828D01*
X186758942Y-105451123D01*
X186797647Y-105373714D01*
X186797647Y-105064076D01*
X187184695Y-106302628D02*
X187184695Y-105838171D01*
X187184695Y-106070400D02*
X186371895Y-106070400D01*
X186488009Y-105992990D01*
X186565419Y-105915580D01*
X186604123Y-105838171D01*
X187184695Y-107350076D02*
X186371895Y-107350076D01*
X186371895Y-107659714D01*
X186410600Y-107737123D01*
X186449304Y-107775828D01*
X186526714Y-107814533D01*
X186642828Y-107814533D01*
X186720238Y-107775828D01*
X186758942Y-107737123D01*
X186797647Y-107659714D01*
X186797647Y-107350076D01*
X186449304Y-108124171D02*
X186410600Y-108162876D01*
X186371895Y-108240285D01*
X186371895Y-108433809D01*
X186410600Y-108511219D01*
X186449304Y-108549923D01*
X186526714Y-108588628D01*
X186604123Y-108588628D01*
X186720238Y-108549923D01*
X187184695Y-108085466D01*
X187184695Y-108588628D01*
X191270466Y-106095195D02*
X191541400Y-105708147D01*
X191734923Y-106095195D02*
X191734923Y-105282395D01*
X191425285Y-105282395D01*
X191347876Y-105321100D01*
X191309171Y-105359804D01*
X191270466Y-105437214D01*
X191270466Y-105553328D01*
X191309171Y-105630738D01*
X191347876Y-105669442D01*
X191425285Y-105708147D01*
X191734923Y-105708147D01*
X190496371Y-106095195D02*
X190960828Y-106095195D01*
X190728600Y-106095195D02*
X190728600Y-105282395D01*
X190806009Y-105398509D01*
X190883419Y-105475919D01*
X190960828Y-105514623D01*
X191270466Y-108381195D02*
X191541400Y-107994147D01*
X191734923Y-108381195D02*
X191734923Y-107568395D01*
X191425285Y-107568395D01*
X191347876Y-107607100D01*
X191309171Y-107645804D01*
X191270466Y-107723214D01*
X191270466Y-107839328D01*
X191309171Y-107916738D01*
X191347876Y-107955442D01*
X191425285Y-107994147D01*
X191734923Y-107994147D01*
X190960828Y-107645804D02*
X190922123Y-107607100D01*
X190844714Y-107568395D01*
X190651190Y-107568395D01*
X190573780Y-107607100D01*
X190535076Y-107645804D01*
X190496371Y-107723214D01*
X190496371Y-107800623D01*
X190535076Y-107916738D01*
X190999533Y-108381195D01*
X190496371Y-108381195D01*
X197361059Y-103054056D02*
X196884869Y-102720722D01*
X197361059Y-102482627D02*
X196361059Y-102482627D01*
X196361059Y-102863579D01*
X196408679Y-102958817D01*
X196456298Y-103006437D01*
X196551536Y-103054056D01*
X196694393Y-103054056D01*
X196789631Y-103006437D01*
X196837250Y-102958817D01*
X196884869Y-102863579D01*
X196884869Y-102482627D01*
X196837250Y-103482627D02*
X196837250Y-103815960D01*
X197361059Y-103958817D02*
X197361059Y-103482627D01*
X196361059Y-103482627D01*
X196361059Y-103958817D01*
X197313440Y-104339770D02*
X197361059Y-104482627D01*
X197361059Y-104720722D01*
X197313440Y-104815960D01*
X197265821Y-104863579D01*
X197170583Y-104911198D01*
X197075345Y-104911198D01*
X196980107Y-104863579D01*
X196932488Y-104815960D01*
X196884869Y-104720722D01*
X196837250Y-104530246D01*
X196789631Y-104435008D01*
X196742012Y-104387389D01*
X196646774Y-104339770D01*
X196551536Y-104339770D01*
X196456298Y-104387389D01*
X196408679Y-104435008D01*
X196361059Y-104530246D01*
X196361059Y-104768341D01*
X196408679Y-104911198D01*
X196837250Y-105339770D02*
X196837250Y-105673103D01*
X197361059Y-105815960D02*
X197361059Y-105339770D01*
X196361059Y-105339770D01*
X196361059Y-105815960D01*
X196361059Y-106101675D02*
X196361059Y-106673103D01*
X197361059Y-106387389D02*
X196361059Y-106387389D01*
D19*
X194251110Y-70760785D02*
X194417776Y-70403642D01*
X194536824Y-70760785D02*
X194536824Y-70010785D01*
X194346348Y-70010785D01*
X194298729Y-70046500D01*
X194274919Y-70082214D01*
X194251110Y-70153642D01*
X194251110Y-70260785D01*
X194274919Y-70332214D01*
X194298729Y-70367928D01*
X194346348Y-70403642D01*
X194536824Y-70403642D01*
X194060633Y-70546500D02*
X193822538Y-70546500D01*
X194108252Y-70760785D02*
X193941586Y-70010785D01*
X193774919Y-70760785D01*
X193655872Y-70010785D02*
X193536824Y-70760785D01*
X193441586Y-70225071D01*
X193346348Y-70760785D01*
X193227300Y-70010785D01*
X178987300Y-70760785D02*
X179225395Y-70760785D01*
X179225395Y-70010785D01*
X178820633Y-70367928D02*
X178653967Y-70367928D01*
X178582538Y-70760785D02*
X178820633Y-70760785D01*
X178820633Y-70010785D01*
X178582538Y-70010785D01*
X178368252Y-70760785D02*
X178368252Y-70010785D01*
X178249205Y-70010785D01*
X178177776Y-70046500D01*
X178130157Y-70117928D01*
X178106348Y-70189357D01*
X178082538Y-70332214D01*
X178082538Y-70439357D01*
X178106348Y-70582214D01*
X178130157Y-70653642D01*
X178177776Y-70725071D01*
X178249205Y-70760785D01*
X178368252Y-70760785D01*
X194223324Y-72523000D02*
X194270943Y-72487285D01*
X194342372Y-72487285D01*
X194413800Y-72523000D01*
X194461419Y-72594428D01*
X194485229Y-72665857D01*
X194509038Y-72808714D01*
X194509038Y-72915857D01*
X194485229Y-73058714D01*
X194461419Y-73130142D01*
X194413800Y-73201571D01*
X194342372Y-73237285D01*
X194294752Y-73237285D01*
X194223324Y-73201571D01*
X194199514Y-73165857D01*
X194199514Y-72915857D01*
X194294752Y-72915857D01*
X193985229Y-73237285D02*
X193985229Y-72487285D01*
X193699514Y-73237285D01*
X193699514Y-72487285D01*
X193461419Y-73237285D02*
X193461419Y-72487285D01*
X193342372Y-72487285D01*
X193270943Y-72523000D01*
X193223324Y-72594428D01*
X193199514Y-72665857D01*
X193175705Y-72808714D01*
X193175705Y-72915857D01*
X193199514Y-73058714D01*
X193223324Y-73130142D01*
X193270943Y-73201571D01*
X193342372Y-73237285D01*
X193461419Y-73237285D01*
X179264872Y-73405285D02*
X179264872Y-72655285D01*
X179145824Y-72655285D01*
X179074395Y-72691000D01*
X179026776Y-72762428D01*
X179002967Y-72833857D01*
X178979157Y-72976714D01*
X178979157Y-73083857D01*
X179002967Y-73226714D01*
X179026776Y-73298142D01*
X179074395Y-73369571D01*
X179145824Y-73405285D01*
X179264872Y-73405285D01*
X178788681Y-73191000D02*
X178550586Y-73191000D01*
X178836300Y-73405285D02*
X178669633Y-72655285D01*
X178502967Y-73405285D01*
X178407729Y-72655285D02*
X178122014Y-72655285D01*
X178264872Y-73405285D02*
X178264872Y-72655285D01*
X177979157Y-73191000D02*
X177741062Y-73191000D01*
X178026776Y-73405285D02*
X177860110Y-72655285D01*
X177693443Y-73405285D01*
X194179681Y-75840785D02*
X194346348Y-75483642D01*
X194465395Y-75840785D02*
X194465395Y-75090785D01*
X194274919Y-75090785D01*
X194227300Y-75126500D01*
X194203491Y-75162214D01*
X194179681Y-75233642D01*
X194179681Y-75340785D01*
X194203491Y-75412214D01*
X194227300Y-75447928D01*
X194274919Y-75483642D01*
X194465395Y-75483642D01*
X193989205Y-75805071D02*
X193917776Y-75840785D01*
X193798729Y-75840785D01*
X193751110Y-75805071D01*
X193727300Y-75769357D01*
X193703491Y-75697928D01*
X193703491Y-75626500D01*
X193727300Y-75555071D01*
X193751110Y-75519357D01*
X193798729Y-75483642D01*
X193893967Y-75447928D01*
X193941586Y-75412214D01*
X193965395Y-75376500D01*
X193989205Y-75305071D01*
X193989205Y-75233642D01*
X193965395Y-75162214D01*
X193941586Y-75126500D01*
X193893967Y-75090785D01*
X193774919Y-75090785D01*
X193703491Y-75126500D01*
X193560633Y-75090785D02*
X193274919Y-75090785D01*
X193417776Y-75840785D02*
X193417776Y-75090785D01*
X179046824Y-75126500D02*
X179094443Y-75090785D01*
X179165872Y-75090785D01*
X179237300Y-75126500D01*
X179284919Y-75197928D01*
X179308729Y-75269357D01*
X179332538Y-75412214D01*
X179332538Y-75519357D01*
X179308729Y-75662214D01*
X179284919Y-75733642D01*
X179237300Y-75805071D01*
X179165872Y-75840785D01*
X179118252Y-75840785D01*
X179046824Y-75805071D01*
X179023014Y-75769357D01*
X179023014Y-75519357D01*
X179118252Y-75519357D01*
X178808729Y-75840785D02*
X178808729Y-75090785D01*
X178523014Y-75840785D01*
X178523014Y-75090785D01*
X178284919Y-75840785D02*
X178284919Y-75090785D01*
X178165872Y-75090785D01*
X178094443Y-75126500D01*
X178046824Y-75197928D01*
X178023014Y-75269357D01*
X177999205Y-75412214D01*
X177999205Y-75519357D01*
X178023014Y-75662214D01*
X178046824Y-75733642D01*
X178094443Y-75805071D01*
X178165872Y-75840785D01*
X178284919Y-75840785D01*
X194509038Y-77630785D02*
X194342372Y-78380785D01*
X194175705Y-77630785D01*
X193723324Y-78309357D02*
X193747133Y-78345071D01*
X193818562Y-78380785D01*
X193866181Y-78380785D01*
X193937610Y-78345071D01*
X193985229Y-78273642D01*
X194009038Y-78202214D01*
X194032848Y-78059357D01*
X194032848Y-77952214D01*
X194009038Y-77809357D01*
X193985229Y-77737928D01*
X193937610Y-77666500D01*
X193866181Y-77630785D01*
X193818562Y-77630785D01*
X193747133Y-77666500D01*
X193723324Y-77702214D01*
X193223324Y-78309357D02*
X193247133Y-78345071D01*
X193318562Y-78380785D01*
X193366181Y-78380785D01*
X193437610Y-78345071D01*
X193485229Y-78273642D01*
X193509038Y-78202214D01*
X193532848Y-78059357D01*
X193532848Y-77952214D01*
X193509038Y-77809357D01*
X193485229Y-77737928D01*
X193437610Y-77666500D01*
X193366181Y-77630785D01*
X193318562Y-77630785D01*
X193247133Y-77666500D01*
X193223324Y-77702214D01*
X179046824Y-77666500D02*
X179094443Y-77630785D01*
X179165872Y-77630785D01*
X179237300Y-77666500D01*
X179284919Y-77737928D01*
X179308729Y-77809357D01*
X179332538Y-77952214D01*
X179332538Y-78059357D01*
X179308729Y-78202214D01*
X179284919Y-78273642D01*
X179237300Y-78345071D01*
X179165872Y-78380785D01*
X179118252Y-78380785D01*
X179046824Y-78345071D01*
X179023014Y-78309357D01*
X179023014Y-78059357D01*
X179118252Y-78059357D01*
X178808729Y-78380785D02*
X178808729Y-77630785D01*
X178523014Y-78380785D01*
X178523014Y-77630785D01*
X178284919Y-78380785D02*
X178284919Y-77630785D01*
X178165872Y-77630785D01*
X178094443Y-77666500D01*
X178046824Y-77737928D01*
X178023014Y-77809357D01*
X177999205Y-77952214D01*
X177999205Y-78059357D01*
X178023014Y-78202214D01*
X178046824Y-78273642D01*
X178094443Y-78345071D01*
X178165872Y-78380785D01*
X178284919Y-78380785D01*
X194262491Y-88433857D02*
X194286300Y-88469571D01*
X194357729Y-88505285D01*
X194405348Y-88505285D01*
X194476776Y-88469571D01*
X194524395Y-88398142D01*
X194548205Y-88326714D01*
X194572014Y-88183857D01*
X194572014Y-88076714D01*
X194548205Y-87933857D01*
X194524395Y-87862428D01*
X194476776Y-87791000D01*
X194405348Y-87755285D01*
X194357729Y-87755285D01*
X194286300Y-87791000D01*
X194262491Y-87826714D01*
X193952967Y-87755285D02*
X193857729Y-87755285D01*
X193810110Y-87791000D01*
X193762491Y-87862428D01*
X193738681Y-88005285D01*
X193738681Y-88255285D01*
X193762491Y-88398142D01*
X193810110Y-88469571D01*
X193857729Y-88505285D01*
X193952967Y-88505285D01*
X194000586Y-88469571D01*
X194048205Y-88398142D01*
X194072014Y-88255285D01*
X194072014Y-88005285D01*
X194048205Y-87862428D01*
X194000586Y-87791000D01*
X193952967Y-87755285D01*
X193286300Y-88505285D02*
X193524395Y-88505285D01*
X193524395Y-87755285D01*
X193167252Y-87755285D02*
X192857729Y-87755285D01*
X193024395Y-88041000D01*
X192952967Y-88041000D01*
X192905348Y-88076714D01*
X192881538Y-88112428D01*
X192857729Y-88183857D01*
X192857729Y-88362428D01*
X192881538Y-88433857D01*
X192905348Y-88469571D01*
X192952967Y-88505285D01*
X193095824Y-88505285D01*
X193143443Y-88469571D01*
X193167252Y-88433857D01*
X179045824Y-85937285D02*
X179212491Y-85580142D01*
X179331538Y-85937285D02*
X179331538Y-85187285D01*
X179141062Y-85187285D01*
X179093443Y-85223000D01*
X179069633Y-85258714D01*
X179045824Y-85330142D01*
X179045824Y-85437285D01*
X179069633Y-85508714D01*
X179093443Y-85544428D01*
X179141062Y-85580142D01*
X179331538Y-85580142D01*
X178736300Y-85187285D02*
X178641062Y-85187285D01*
X178593443Y-85223000D01*
X178545824Y-85294428D01*
X178522014Y-85437285D01*
X178522014Y-85687285D01*
X178545824Y-85830142D01*
X178593443Y-85901571D01*
X178641062Y-85937285D01*
X178736300Y-85937285D01*
X178783919Y-85901571D01*
X178831538Y-85830142D01*
X178855348Y-85687285D01*
X178855348Y-85437285D01*
X178831538Y-85294428D01*
X178783919Y-85223000D01*
X178736300Y-85187285D01*
X178355348Y-85187285D02*
X178236300Y-85937285D01*
X178141062Y-85401571D01*
X178045824Y-85937285D01*
X177926776Y-85187285D01*
X177641062Y-85187285D02*
X177593443Y-85187285D01*
X177545824Y-85223000D01*
X177522014Y-85258714D01*
X177498205Y-85330142D01*
X177474395Y-85473000D01*
X177474395Y-85651571D01*
X177498205Y-85794428D01*
X177522014Y-85865857D01*
X177545824Y-85901571D01*
X177593443Y-85937285D01*
X177641062Y-85937285D01*
X177688681Y-85901571D01*
X177712491Y-85865857D01*
X177736300Y-85794428D01*
X177760110Y-85651571D01*
X177760110Y-85473000D01*
X177736300Y-85330142D01*
X177712491Y-85258714D01*
X177688681Y-85223000D01*
X177641062Y-85187285D01*
X194262491Y-85933857D02*
X194286300Y-85969571D01*
X194357729Y-86005285D01*
X194405348Y-86005285D01*
X194476776Y-85969571D01*
X194524395Y-85898142D01*
X194548205Y-85826714D01*
X194572014Y-85683857D01*
X194572014Y-85576714D01*
X194548205Y-85433857D01*
X194524395Y-85362428D01*
X194476776Y-85291000D01*
X194405348Y-85255285D01*
X194357729Y-85255285D01*
X194286300Y-85291000D01*
X194262491Y-85326714D01*
X193952967Y-85255285D02*
X193857729Y-85255285D01*
X193810110Y-85291000D01*
X193762491Y-85362428D01*
X193738681Y-85505285D01*
X193738681Y-85755285D01*
X193762491Y-85898142D01*
X193810110Y-85969571D01*
X193857729Y-86005285D01*
X193952967Y-86005285D01*
X194000586Y-85969571D01*
X194048205Y-85898142D01*
X194072014Y-85755285D01*
X194072014Y-85505285D01*
X194048205Y-85362428D01*
X194000586Y-85291000D01*
X193952967Y-85255285D01*
X193286300Y-86005285D02*
X193524395Y-86005285D01*
X193524395Y-85255285D01*
X193143443Y-85326714D02*
X193119633Y-85291000D01*
X193072014Y-85255285D01*
X192952967Y-85255285D01*
X192905348Y-85291000D01*
X192881538Y-85326714D01*
X192857729Y-85398142D01*
X192857729Y-85469571D01*
X192881538Y-85576714D01*
X193167252Y-86005285D01*
X192857729Y-86005285D01*
X179261110Y-83425071D02*
X179189681Y-83460785D01*
X179070633Y-83460785D01*
X179023014Y-83425071D01*
X178999205Y-83389357D01*
X178975395Y-83317928D01*
X178975395Y-83246500D01*
X178999205Y-83175071D01*
X179023014Y-83139357D01*
X179070633Y-83103642D01*
X179165872Y-83067928D01*
X179213491Y-83032214D01*
X179237300Y-82996500D01*
X179261110Y-82925071D01*
X179261110Y-82853642D01*
X179237300Y-82782214D01*
X179213491Y-82746500D01*
X179165872Y-82710785D01*
X179046824Y-82710785D01*
X178975395Y-82746500D01*
X178475395Y-83389357D02*
X178499205Y-83425071D01*
X178570633Y-83460785D01*
X178618252Y-83460785D01*
X178689681Y-83425071D01*
X178737300Y-83353642D01*
X178761110Y-83282214D01*
X178784919Y-83139357D01*
X178784919Y-83032214D01*
X178761110Y-82889357D01*
X178737300Y-82817928D01*
X178689681Y-82746500D01*
X178618252Y-82710785D01*
X178570633Y-82710785D01*
X178499205Y-82746500D01*
X178475395Y-82782214D01*
X178023014Y-83460785D02*
X178261110Y-83460785D01*
X178261110Y-82710785D01*
X194262491Y-83389357D02*
X194286300Y-83425071D01*
X194357729Y-83460785D01*
X194405348Y-83460785D01*
X194476776Y-83425071D01*
X194524395Y-83353642D01*
X194548205Y-83282214D01*
X194572014Y-83139357D01*
X194572014Y-83032214D01*
X194548205Y-82889357D01*
X194524395Y-82817928D01*
X194476776Y-82746500D01*
X194405348Y-82710785D01*
X194357729Y-82710785D01*
X194286300Y-82746500D01*
X194262491Y-82782214D01*
X193952967Y-82710785D02*
X193857729Y-82710785D01*
X193810110Y-82746500D01*
X193762491Y-82817928D01*
X193738681Y-82960785D01*
X193738681Y-83210785D01*
X193762491Y-83353642D01*
X193810110Y-83425071D01*
X193857729Y-83460785D01*
X193952967Y-83460785D01*
X194000586Y-83425071D01*
X194048205Y-83353642D01*
X194072014Y-83210785D01*
X194072014Y-82960785D01*
X194048205Y-82817928D01*
X194000586Y-82746500D01*
X193952967Y-82710785D01*
X193286300Y-83460785D02*
X193524395Y-83460785D01*
X193524395Y-82710785D01*
X192857729Y-83460785D02*
X193143443Y-83460785D01*
X193000586Y-83460785D02*
X193000586Y-82710785D01*
X193048205Y-82817928D01*
X193095824Y-82889357D01*
X193143443Y-82925071D01*
X179273014Y-80885071D02*
X179201586Y-80920785D01*
X179082538Y-80920785D01*
X179034919Y-80885071D01*
X179011110Y-80849357D01*
X178987300Y-80777928D01*
X178987300Y-80706500D01*
X179011110Y-80635071D01*
X179034919Y-80599357D01*
X179082538Y-80563642D01*
X179177776Y-80527928D01*
X179225395Y-80492214D01*
X179249205Y-80456500D01*
X179273014Y-80385071D01*
X179273014Y-80313642D01*
X179249205Y-80242214D01*
X179225395Y-80206500D01*
X179177776Y-80170785D01*
X179058729Y-80170785D01*
X178987300Y-80206500D01*
X178773014Y-80920785D02*
X178773014Y-80170785D01*
X178653967Y-80170785D01*
X178582538Y-80206500D01*
X178534919Y-80277928D01*
X178511110Y-80349357D01*
X178487300Y-80492214D01*
X178487300Y-80599357D01*
X178511110Y-80742214D01*
X178534919Y-80813642D01*
X178582538Y-80885071D01*
X178653967Y-80920785D01*
X178773014Y-80920785D01*
X178296824Y-80706500D02*
X178058729Y-80706500D01*
X178344443Y-80920785D02*
X178177776Y-80170785D01*
X178011110Y-80920785D01*
X194262491Y-80883857D02*
X194286300Y-80919571D01*
X194357729Y-80955285D01*
X194405348Y-80955285D01*
X194476776Y-80919571D01*
X194524395Y-80848142D01*
X194548205Y-80776714D01*
X194572014Y-80633857D01*
X194572014Y-80526714D01*
X194548205Y-80383857D01*
X194524395Y-80312428D01*
X194476776Y-80241000D01*
X194405348Y-80205285D01*
X194357729Y-80205285D01*
X194286300Y-80241000D01*
X194262491Y-80276714D01*
X193952967Y-80205285D02*
X193857729Y-80205285D01*
X193810110Y-80241000D01*
X193762491Y-80312428D01*
X193738681Y-80455285D01*
X193738681Y-80705285D01*
X193762491Y-80848142D01*
X193810110Y-80919571D01*
X193857729Y-80955285D01*
X193952967Y-80955285D01*
X194000586Y-80919571D01*
X194048205Y-80848142D01*
X194072014Y-80705285D01*
X194072014Y-80455285D01*
X194048205Y-80312428D01*
X194000586Y-80241000D01*
X193952967Y-80205285D01*
X193286300Y-80955285D02*
X193524395Y-80955285D01*
X193524395Y-80205285D01*
X193024395Y-80205285D02*
X192976776Y-80205285D01*
X192929157Y-80241000D01*
X192905348Y-80276714D01*
X192881538Y-80348142D01*
X192857729Y-80491000D01*
X192857729Y-80669571D01*
X192881538Y-80812428D01*
X192905348Y-80883857D01*
X192929157Y-80919571D01*
X192976776Y-80955285D01*
X193024395Y-80955285D01*
X193072014Y-80919571D01*
X193095824Y-80883857D01*
X193119633Y-80812428D01*
X193143443Y-80669571D01*
X193143443Y-80491000D01*
X193119633Y-80348142D01*
X193095824Y-80276714D01*
X193072014Y-80241000D01*
X193024395Y-80205285D01*
X194362252Y-98244428D02*
X194290824Y-98280142D01*
X194267014Y-98315857D01*
X194243205Y-98387285D01*
X194243205Y-98494428D01*
X194267014Y-98565857D01*
X194290824Y-98601571D01*
X194338443Y-98637285D01*
X194528919Y-98637285D01*
X194528919Y-97887285D01*
X194362252Y-97887285D01*
X194314633Y-97923000D01*
X194290824Y-97958714D01*
X194267014Y-98030142D01*
X194267014Y-98101571D01*
X194290824Y-98173000D01*
X194314633Y-98208714D01*
X194362252Y-98244428D01*
X194528919Y-98244428D01*
X193814633Y-97887285D02*
X193909872Y-97887285D01*
X193957491Y-97923000D01*
X193981300Y-97958714D01*
X194028919Y-98065857D01*
X194052729Y-98208714D01*
X194052729Y-98494428D01*
X194028919Y-98565857D01*
X194005110Y-98601571D01*
X193957491Y-98637285D01*
X193862252Y-98637285D01*
X193814633Y-98601571D01*
X193790824Y-98565857D01*
X193767014Y-98494428D01*
X193767014Y-98315857D01*
X193790824Y-98244428D01*
X193814633Y-98208714D01*
X193862252Y-98173000D01*
X193957491Y-98173000D01*
X194005110Y-98208714D01*
X194028919Y-98244428D01*
X194052729Y-98315857D01*
X178868252Y-98307928D02*
X178796824Y-98343642D01*
X178773014Y-98379357D01*
X178749205Y-98450785D01*
X178749205Y-98557928D01*
X178773014Y-98629357D01*
X178796824Y-98665071D01*
X178844443Y-98700785D01*
X179034919Y-98700785D01*
X179034919Y-97950785D01*
X178868252Y-97950785D01*
X178820633Y-97986500D01*
X178796824Y-98022214D01*
X178773014Y-98093642D01*
X178773014Y-98165071D01*
X178796824Y-98236500D01*
X178820633Y-98272214D01*
X178868252Y-98307928D01*
X179034919Y-98307928D01*
X178296824Y-97950785D02*
X178534919Y-97950785D01*
X178558729Y-98307928D01*
X178534919Y-98272214D01*
X178487300Y-98236500D01*
X178368252Y-98236500D01*
X178320633Y-98272214D01*
X178296824Y-98307928D01*
X178273014Y-98379357D01*
X178273014Y-98557928D01*
X178296824Y-98629357D01*
X178320633Y-98665071D01*
X178368252Y-98700785D01*
X178487300Y-98700785D01*
X178534919Y-98665071D01*
X178558729Y-98629357D01*
X178868252Y-95767928D02*
X178796824Y-95803642D01*
X178773014Y-95839357D01*
X178749205Y-95910785D01*
X178749205Y-96017928D01*
X178773014Y-96089357D01*
X178796824Y-96125071D01*
X178844443Y-96160785D01*
X179034919Y-96160785D01*
X179034919Y-95410785D01*
X178868252Y-95410785D01*
X178820633Y-95446500D01*
X178796824Y-95482214D01*
X178773014Y-95553642D01*
X178773014Y-95625071D01*
X178796824Y-95696500D01*
X178820633Y-95732214D01*
X178868252Y-95767928D01*
X179034919Y-95767928D01*
X178320633Y-95660785D02*
X178320633Y-96160785D01*
X178439681Y-95375071D02*
X178558729Y-95910785D01*
X178249205Y-95910785D01*
X194425752Y-95640928D02*
X194354324Y-95676642D01*
X194330514Y-95712357D01*
X194306705Y-95783785D01*
X194306705Y-95890928D01*
X194330514Y-95962357D01*
X194354324Y-95998071D01*
X194401943Y-96033785D01*
X194592419Y-96033785D01*
X194592419Y-95283785D01*
X194425752Y-95283785D01*
X194378133Y-95319500D01*
X194354324Y-95355214D01*
X194330514Y-95426642D01*
X194330514Y-95498071D01*
X194354324Y-95569500D01*
X194378133Y-95605214D01*
X194425752Y-95640928D01*
X194592419Y-95640928D01*
X194116229Y-95355214D02*
X194092419Y-95319500D01*
X194044800Y-95283785D01*
X193925752Y-95283785D01*
X193878133Y-95319500D01*
X193854324Y-95355214D01*
X193830514Y-95426642D01*
X193830514Y-95498071D01*
X193854324Y-95605214D01*
X194140038Y-96033785D01*
X193830514Y-96033785D01*
X179045824Y-93655285D02*
X179212491Y-93298142D01*
X179331538Y-93655285D02*
X179331538Y-92905285D01*
X179141062Y-92905285D01*
X179093443Y-92941000D01*
X179069633Y-92976714D01*
X179045824Y-93048142D01*
X179045824Y-93155285D01*
X179069633Y-93226714D01*
X179093443Y-93262428D01*
X179141062Y-93298142D01*
X179331538Y-93298142D01*
X178736300Y-92905285D02*
X178641062Y-92905285D01*
X178593443Y-92941000D01*
X178545824Y-93012428D01*
X178522014Y-93155285D01*
X178522014Y-93405285D01*
X178545824Y-93548142D01*
X178593443Y-93619571D01*
X178641062Y-93655285D01*
X178736300Y-93655285D01*
X178783919Y-93619571D01*
X178831538Y-93548142D01*
X178855348Y-93405285D01*
X178855348Y-93155285D01*
X178831538Y-93012428D01*
X178783919Y-92941000D01*
X178736300Y-92905285D01*
X178355348Y-92905285D02*
X178236300Y-93655285D01*
X178141062Y-93119571D01*
X178045824Y-93655285D01*
X177926776Y-92905285D01*
X177783919Y-92905285D02*
X177474395Y-92905285D01*
X177641062Y-93191000D01*
X177569633Y-93191000D01*
X177522014Y-93226714D01*
X177498205Y-93262428D01*
X177474395Y-93333857D01*
X177474395Y-93512428D01*
X177498205Y-93583857D01*
X177522014Y-93619571D01*
X177569633Y-93655285D01*
X177712491Y-93655285D01*
X177760110Y-93619571D01*
X177783919Y-93583857D01*
X194262491Y-93583857D02*
X194286300Y-93619571D01*
X194357729Y-93655285D01*
X194405348Y-93655285D01*
X194476776Y-93619571D01*
X194524395Y-93548142D01*
X194548205Y-93476714D01*
X194572014Y-93333857D01*
X194572014Y-93226714D01*
X194548205Y-93083857D01*
X194524395Y-93012428D01*
X194476776Y-92941000D01*
X194405348Y-92905285D01*
X194357729Y-92905285D01*
X194286300Y-92941000D01*
X194262491Y-92976714D01*
X193952967Y-92905285D02*
X193857729Y-92905285D01*
X193810110Y-92941000D01*
X193762491Y-93012428D01*
X193738681Y-93155285D01*
X193738681Y-93405285D01*
X193762491Y-93548142D01*
X193810110Y-93619571D01*
X193857729Y-93655285D01*
X193952967Y-93655285D01*
X194000586Y-93619571D01*
X194048205Y-93548142D01*
X194072014Y-93405285D01*
X194072014Y-93155285D01*
X194048205Y-93012428D01*
X194000586Y-92941000D01*
X193952967Y-92905285D01*
X193286300Y-93655285D02*
X193524395Y-93655285D01*
X193524395Y-92905285D01*
X192881538Y-92905285D02*
X193119633Y-92905285D01*
X193143443Y-93262428D01*
X193119633Y-93226714D01*
X193072014Y-93191000D01*
X192952967Y-93191000D01*
X192905348Y-93226714D01*
X192881538Y-93262428D01*
X192857729Y-93333857D01*
X192857729Y-93512428D01*
X192881538Y-93583857D01*
X192905348Y-93619571D01*
X192952967Y-93655285D01*
X193072014Y-93655285D01*
X193119633Y-93619571D01*
X193143443Y-93583857D01*
X179045824Y-91144285D02*
X179212491Y-90787142D01*
X179331538Y-91144285D02*
X179331538Y-90394285D01*
X179141062Y-90394285D01*
X179093443Y-90430000D01*
X179069633Y-90465714D01*
X179045824Y-90537142D01*
X179045824Y-90644285D01*
X179069633Y-90715714D01*
X179093443Y-90751428D01*
X179141062Y-90787142D01*
X179331538Y-90787142D01*
X178736300Y-90394285D02*
X178641062Y-90394285D01*
X178593443Y-90430000D01*
X178545824Y-90501428D01*
X178522014Y-90644285D01*
X178522014Y-90894285D01*
X178545824Y-91037142D01*
X178593443Y-91108571D01*
X178641062Y-91144285D01*
X178736300Y-91144285D01*
X178783919Y-91108571D01*
X178831538Y-91037142D01*
X178855348Y-90894285D01*
X178855348Y-90644285D01*
X178831538Y-90501428D01*
X178783919Y-90430000D01*
X178736300Y-90394285D01*
X178355348Y-90394285D02*
X178236300Y-91144285D01*
X178141062Y-90608571D01*
X178045824Y-91144285D01*
X177926776Y-90394285D01*
X177760110Y-90465714D02*
X177736300Y-90430000D01*
X177688681Y-90394285D01*
X177569633Y-90394285D01*
X177522014Y-90430000D01*
X177498205Y-90465714D01*
X177474395Y-90537142D01*
X177474395Y-90608571D01*
X177498205Y-90715714D01*
X177783919Y-91144285D01*
X177474395Y-91144285D01*
X194212491Y-90945857D02*
X194236300Y-90981571D01*
X194307729Y-91017285D01*
X194355348Y-91017285D01*
X194426776Y-90981571D01*
X194474395Y-90910142D01*
X194498205Y-90838714D01*
X194522014Y-90695857D01*
X194522014Y-90588714D01*
X194498205Y-90445857D01*
X194474395Y-90374428D01*
X194426776Y-90303000D01*
X194355348Y-90267285D01*
X194307729Y-90267285D01*
X194236300Y-90303000D01*
X194212491Y-90338714D01*
X193902967Y-90267285D02*
X193807729Y-90267285D01*
X193760110Y-90303000D01*
X193712491Y-90374428D01*
X193688681Y-90517285D01*
X193688681Y-90767285D01*
X193712491Y-90910142D01*
X193760110Y-90981571D01*
X193807729Y-91017285D01*
X193902967Y-91017285D01*
X193950586Y-90981571D01*
X193998205Y-90910142D01*
X194022014Y-90767285D01*
X194022014Y-90517285D01*
X193998205Y-90374428D01*
X193950586Y-90303000D01*
X193902967Y-90267285D01*
X193236300Y-91017285D02*
X193474395Y-91017285D01*
X193474395Y-90267285D01*
X192855348Y-90517285D02*
X192855348Y-91017285D01*
X192974395Y-90231571D02*
X193093443Y-90767285D01*
X192783919Y-90767285D01*
X179045824Y-88540785D02*
X179212491Y-88183642D01*
X179331538Y-88540785D02*
X179331538Y-87790785D01*
X179141062Y-87790785D01*
X179093443Y-87826500D01*
X179069633Y-87862214D01*
X179045824Y-87933642D01*
X179045824Y-88040785D01*
X179069633Y-88112214D01*
X179093443Y-88147928D01*
X179141062Y-88183642D01*
X179331538Y-88183642D01*
X178736300Y-87790785D02*
X178641062Y-87790785D01*
X178593443Y-87826500D01*
X178545824Y-87897928D01*
X178522014Y-88040785D01*
X178522014Y-88290785D01*
X178545824Y-88433642D01*
X178593443Y-88505071D01*
X178641062Y-88540785D01*
X178736300Y-88540785D01*
X178783919Y-88505071D01*
X178831538Y-88433642D01*
X178855348Y-88290785D01*
X178855348Y-88040785D01*
X178831538Y-87897928D01*
X178783919Y-87826500D01*
X178736300Y-87790785D01*
X178355348Y-87790785D02*
X178236300Y-88540785D01*
X178141062Y-88005071D01*
X178045824Y-88540785D01*
X177926776Y-87790785D01*
X177474395Y-88540785D02*
X177760110Y-88540785D01*
X177617252Y-88540785D02*
X177617252Y-87790785D01*
X177664872Y-87897928D01*
X177712491Y-87969357D01*
X177760110Y-88005071D01*
D17*
M02*
