M48
; DRILL file {KiCad (5.1.0)-1} date 6/7/2019 23:14:56
; FORMAT={-:-/ absolute / metric / decimal}
; #@! TF.CreationDate,2019-06-07T23:14:56+02:00
; #@! TF.GenerationSoftware,Kicad,Pcbnew,(5.1.0)-1
FMAT,2
METRIC
T1C0.400
T2C0.700
T3C0.813
T4C1.000
T5C1.300
T6C2.200
T7C1.200
T8C1.900
T9C3.000
T10C4.100
%
G90
G05
T1
X46.228Y-97.536
X46.482Y-83.058
X49.022Y-96.266
X49.022Y-98.044
X49.335Y-92.877
X49.53Y-83.312
X49.784Y-78.486
X51.054Y-87.63
X51.054Y-107.188
X51.054Y-116.332
X51.816Y-102.362
X52.324Y-83.566
X52.578Y-92.71
X52.578Y-96.774
X53.34Y-75.184
X55.118Y-83.82
X55.372Y-87.63
X56.388Y-97.028
X56.388Y-107.188
X56.388Y-116.332
X56.896Y-82.296
X57.15Y-91.44
X57.404Y-74.676
X59.182Y-102.616
X59.69Y-97.028
X59.944Y-83.566
X59.944Y-87.63
X59.944Y-110.998
X59.944Y-116.586
X60.198Y-108.712
X60.96Y-73.914
X60.96Y-103.378
X60.96Y-115.062
X62.23Y-79.248
X62.23Y-123.698
X63.246Y-81.28
X63.246Y-86.36
X63.246Y-96.774
X63.246Y-104.902
X63.246Y-106.68
X63.246Y-108.204
X69.342Y-122.174
X69.85Y-124.968
X69.85Y-124.968
X70.612Y-111.506
X71.12Y-84.074
X71.882Y-139.446
X72.136Y-104.394
X72.136Y-120.142
X72.39Y-101.092
X73.66Y-81.28
X73.66Y-82.804
X73.66Y-100.33
X73.66Y-119.38
X73.66Y-138.684
X76.115Y-109.813
X76.454Y-102.616
X76.962Y-122.174
X77.978Y-89.662
X79.756Y-89.408
X80.01Y-68.834
X80.772Y-125.984
X81.788Y-73.406
X83.058Y-89.662
X83.058Y-93.218
X83.058Y-106.934
X83.058Y-117.602
X83.82Y-69.85
X85.09Y-73.914
X85.598Y-128.016
X88.392Y-120.142
X90.17Y-104.648
X90.932Y-101.092
X91.186Y-86.106
X92.71Y-81.28
X92.71Y-82.55
X92.71Y-100.33
X92.71Y-119.38
X95.25Y-107.188
X96.012Y-83.312
X96.266Y-103.886
X99.314Y-72.136
X99.314Y-88.138
X100.33Y-87.122
X101.092Y-108.204
X101.346Y-110.49
X102.108Y-78.486
X102.362Y-99.06
X104.394Y-70.358
X106.934Y-66.294
X109.22Y-99.568
X109.982Y-96.774
X109.982Y-115.824
X110.236Y-76.962
X110.49Y-66.04
X111.76Y-77.724
X111.76Y-96.012
X111.76Y-115.062
X113.03Y-83.058
X114.554Y-104.14
X114.808Y-78.994
X114.808Y-102.616
X115.062Y-67.564
X115.316Y-101.092
X115.57Y-81.788
X118.11Y-104.14
X118.364Y-80.264
X118.364Y-81.788
X118.618Y-78.232
X118.872Y-84.328
X119.126Y-99.314
X120.142Y-66.802
X120.396Y-77.216
X120.65Y-88.646
X121.412Y-102.87
X121.666Y-72.644
X121.666Y-86.36
X122.682Y-93.472
X123.444Y-77.978
X123.444Y-84.836
X124.968Y-114.808
X125.984Y-101.092
X126.746Y-78.994
X127.635Y-94.234
X129.032Y-117.094
X129.54Y-115.062
X130.048Y-131.064
X130.81Y-74.422
X130.81Y-76.708
X130.81Y-93.472
X130.81Y-112.522
X130.81Y-115.062
X131.064Y-127.254
X132.842Y-121.412
X133.604Y-124.968
X134.112Y-76.708
X134.112Y-95.758
X134.366Y-81.788
X134.366Y-83.312
X134.62Y-80.264
X136.144Y-115.824
X137.16Y-80.264
X137.414Y-83.312
X137.668Y-81.788
X138.176Y-95.758
X138.43Y-93.98
X139.192Y-66.548
X139.954Y-75.946
X140.335Y-134.874
X140.462Y-136.398
X141.732Y-81.28
X141.732Y-119.126
X142.24Y-88.646
X143.764Y-65.278
X143.764Y-67.564
X147.574Y-96.774
X148.59Y-102.616
X148.844Y-118.872
X149.098Y-122.936
X149.606Y-78.486
X149.86Y-76.962
X149.86Y-96.012
X149.86Y-115.062
X149.86Y-116.586
X151.13Y-84.074
X153.162Y-83.058
X153.416Y-80.01
X153.67Y-85.598
X156.21Y-85.598
X156.21Y-85.598
X156.972Y-77.47
X156.972Y-99.822
X157.988Y-85.09
X158.242Y-68.326
X159.258Y-84.074
X159.258Y-137.922
X159.258Y-139.192
X163.322Y-68.58
X167.894Y-80.264
X168.91Y-79.502
X168.91Y-98.552
X168.91Y-117.602
X170.688Y-120.142
X171.45Y-102.108
X171.958Y-106.68
X172.212Y-81.534
X172.72Y-83.058
X172.974Y-84.328
X172.974Y-86.106
X172.974Y-87.376
X174.752Y-66.802
X175.006Y-87.376
X175.26Y-84.328
X175.26Y-86.106
X175.514Y-81.788
X176.348Y-83.312
X176.53Y-64.77
X177.038Y-117.602
X179.07Y-116.84
X179.07Y-119.253
X183.134Y-110.236
X183.642Y-72.898
X184.15Y-104.394
X185.928Y-88.138
X185.928Y-90.678
X185.928Y-96.266
X186.182Y-85.598
X186.182Y-108.966
X186.436Y-83.058
X186.944Y-80.518
X187.452Y-75.438
X188.214Y-89.408
X188.468Y-70.358
X188.468Y-86.868
X188.722Y-81.788
X188.722Y-84.328
X188.722Y-96.266
X188.952Y-98.02
X188.976Y-72.644
X188.976Y-79.248
X189.23Y-140.716
X189.484Y-95.504
X189.992Y-138.176
X190.246Y-69.088
X190.754Y-71.628
X191.77Y-89.408
X192.278Y-72.898
X192.278Y-76.708
X192.278Y-84.328
X192.532Y-92.456
X192.786Y-86.868
X192.786Y-89.408
X192.786Y-94.742
X193.548Y-95.504
X194.056Y-68.072
X194.31Y-75.438
X194.31Y-91.694
X194.564Y-89.916
X194.818Y-94.234
T2
X46.482Y-76.073
X46.482Y-81.153
X50.927Y-104.648
X50.927Y-109.728
X55.372Y-114.173
X55.372Y-119.253
X55.372Y-76.073
X55.372Y-81.153
X59.817Y-85.598
X59.817Y-90.678
X55.372Y-95.123
X55.372Y-100.203
X46.482Y-104.648
X46.482Y-109.728
X46.482Y-95.123
X46.482Y-100.203
X50.927Y-123.698
X50.927Y-128.778
X50.801Y-85.598
X50.801Y-90.678
X55.372Y-104.648
X55.372Y-109.728
X59.69Y-123.825
X59.69Y-128.905
X59.817Y-76.073
X59.817Y-81.153
X46.482Y-85.598
X46.482Y-90.678
X50.927Y-114.173
X50.927Y-119.253
X55.372Y-123.698
X55.372Y-128.778
X55.372Y-85.598
X55.372Y-90.678
X59.817Y-95.123
X59.817Y-100.203
X50.927Y-76.073
X50.927Y-81.153
X46.482Y-114.173
X46.482Y-119.253
X50.927Y-95.123
X50.927Y-100.203
X46.482Y-123.698
X46.482Y-128.778
T3
X188.595Y-105.664
X193.675Y-105.664
X180.825Y-70.358
X180.825Y-72.898
X180.825Y-75.438
X180.825Y-77.978
X180.825Y-80.518
X180.825Y-83.058
X180.825Y-85.598
X180.825Y-88.138
X180.825Y-90.678
X180.825Y-93.218
X180.825Y-95.758
X180.825Y-98.298
X182.151Y-69.088
X182.151Y-71.628
X182.151Y-74.168
X182.151Y-76.708
X182.151Y-79.248
X182.151Y-81.788
X182.151Y-84.328
X182.151Y-86.868
X182.151Y-89.408
X182.151Y-91.948
X182.151Y-94.488
X182.151Y-97.028
X196.065Y-70.358
X196.065Y-72.898
X196.065Y-75.438
X196.065Y-77.978
X196.065Y-80.518
X196.065Y-83.058
X196.065Y-85.598
X196.065Y-88.138
X196.065Y-90.678
X196.065Y-93.218
X196.065Y-95.758
X196.065Y-98.298
X197.371Y-69.088
X197.371Y-71.628
X197.371Y-74.168
X197.371Y-76.708
X197.371Y-79.248
X197.371Y-81.788
X197.371Y-84.328
X197.371Y-86.868
X197.371Y-89.408
X197.371Y-91.948
X197.371Y-94.488
X197.371Y-97.028
X185.166Y-107.95
X188.595Y-107.95
X193.675Y-107.95
X185.166Y-105.664
X185.293Y-102.616
X187.833Y-102.616
X190.373Y-102.616
X192.913Y-102.616
T5
X196.909Y-101.383
X196.909Y-107.883
T6
X130.81Y-98.044
X83.185Y-121.92
X45.212Y-137.922
X196.088Y-121.92
X158.75Y-80.645
X61.468Y-67.818
X127.254Y-122.936
X83.185Y-83.82
X181.356Y-113.538
X173.355Y-128.27
X61.468Y-137.922
X45.212Y-67.818
X102.235Y-102.87
T7
X190.255Y-112.55
X190.255Y-114.3
X197.255Y-112.55
X197.255Y-114.3
T8
X68.58Y-112.395
X78.74Y-112.395
X68.58Y-74.295
X78.74Y-74.295
X163.83Y-72.39
X173.99Y-72.39
X106.68Y-69.85
X116.84Y-69.85
X106.68Y-88.9
X116.84Y-88.9
X125.73Y-86.36
X135.89Y-86.36
X163.83Y-91.44
X173.99Y-91.44
X125.73Y-105.41
X135.89Y-105.41
X144.78Y-107.95
X154.94Y-107.95
X144.78Y-69.85
X154.94Y-69.85
X163.83Y-110.49
X173.99Y-110.49
X87.63Y-112.395
X97.79Y-112.395
X87.63Y-74.295
X97.79Y-74.295
X144.78Y-88.9
X154.94Y-88.9
X68.58Y-131.445
X78.74Y-131.445
X68.58Y-93.345
X78.74Y-93.345
X135.255Y-127.7
X145.415Y-127.7
X125.73Y-67.31
X135.89Y-67.31
X180.975Y-138.384
X186.055Y-129.586
X106.68Y-107.95
X116.84Y-107.95
X87.63Y-93.345
X97.79Y-93.345
X156.583Y-129.185
X166.397Y-131.815
T9
X127.0Y-69.85
X128.27Y-72.39
X133.35Y-72.39
X134.62Y-69.85
X183.81Y-138.555
X186.644Y-138.725
X187.62Y-131.955
X189.184Y-134.325
X107.95Y-110.49
X109.22Y-113.03
X114.3Y-113.03
X115.57Y-110.49
X88.9Y-95.885
X90.17Y-98.425
X95.25Y-98.425
X96.52Y-95.885
X157.152Y-131.967
X157.722Y-134.75
X162.629Y-136.064
X164.513Y-133.94
X69.85Y-114.935
X71.12Y-117.475
X76.2Y-117.475
X77.47Y-114.935
X69.85Y-76.835
X71.12Y-79.375
X76.2Y-79.375
X77.47Y-76.835
X165.1Y-74.93
X166.37Y-77.47
X171.45Y-77.47
X172.72Y-74.93
X107.95Y-72.39
X109.22Y-74.93
X114.3Y-74.93
X115.57Y-72.39
X107.95Y-91.44
X109.22Y-93.98
X114.3Y-93.98
X115.57Y-91.44
X127.0Y-88.9
X128.27Y-91.44
X133.35Y-91.44
X134.62Y-88.9
X165.1Y-93.98
X166.37Y-96.52
X171.45Y-96.52
X172.72Y-93.98
X127.0Y-107.95
X128.27Y-110.49
X133.35Y-110.49
X134.62Y-107.95
X146.05Y-110.49
X147.32Y-113.03
X152.4Y-113.03
X153.67Y-110.49
X146.05Y-72.39
X147.32Y-74.93
X152.4Y-74.93
X153.67Y-72.39
X165.1Y-113.03
X166.37Y-115.57
X171.45Y-115.57
X172.72Y-113.03
X88.9Y-114.935
X90.17Y-117.475
X95.25Y-117.475
X96.52Y-114.935
X88.9Y-76.835
X90.17Y-79.375
X95.25Y-79.375
X96.52Y-76.835
X146.05Y-91.44
X147.32Y-93.98
X152.4Y-93.98
X153.67Y-91.44
X69.85Y-133.985
X71.12Y-136.525
X76.2Y-136.525
X77.47Y-133.985
X69.85Y-95.885
X71.12Y-98.425
X76.2Y-98.425
X77.47Y-95.885
X136.525Y-130.24
X137.795Y-132.78
X142.875Y-132.78
X144.145Y-130.24
T10
X183.515Y-133.985
X111.76Y-107.95
X92.71Y-93.345
X161.49Y-130.5
X73.66Y-112.395
X73.66Y-74.295
X168.91Y-72.39
X111.76Y-69.85
X111.76Y-88.9
X130.81Y-86.36
X168.91Y-91.44
X130.81Y-105.41
X149.86Y-107.95
X149.86Y-69.85
X168.91Y-110.49
X92.71Y-112.395
X92.71Y-74.295
X149.86Y-88.9
X73.66Y-131.445
X73.66Y-93.345
X140.335Y-127.7
X130.81Y-67.31
T4
G00X187.205Y-112.2
M15
G01X186.705Y-112.2
M16
G05
G00X187.205Y-114.65
M15
G01X186.705Y-114.65
M16
G05
G00X188.705Y-110.45
M15
G01X188.205Y-110.45
M16
G05
G00X188.705Y-116.4
M15
G01X188.205Y-116.4
M16
G05
G00X192.705Y-110.45
M15
G01X192.205Y-110.45
M16
G05
G00X192.705Y-116.4
M15
G01X192.205Y-116.4
M16
G05
G00X195.705Y-110.45
M15
G01X195.205Y-110.45
M16
G05
G00X195.705Y-116.4
M15
G01X195.205Y-116.4
M16
G05
T0
M30
